<?xml version="1.0" encoding="UTF-8" standalone="no"?>
<!-- Created with Inkscape (http://www.inkscape.org/) -->

<svg
   xmlns:dc="http://purl.org/dc/elements/1.1/"
   xmlns:cc="http://creativecommons.org/ns#"
   xmlns:rdf="http://www.w3.org/1999/02/22-rdf-syntax-ns#"
   xmlns:svg="http://www.w3.org/2000/svg"
   xmlns="http://www.w3.org/2000/svg"
   xmlns:sodipodi="http://sodipodi.sourceforge.net/DTD/sodipodi-0.dtd"
   xmlns:inkscape="http://www.inkscape.org/namespaces/inkscape"
   width="150.99887"
   height="56"
   id="svg2"
   version="1.1"
   inkscape:version="0.47 r22583"
   sodipodi:docname="geeklog-logo_low-res-1.svg"
   inkscape:export-filename="/home/roccivic/Desktop/logo.png"
   inkscape:export-xdpi="12.354546"
   inkscape:export-ydpi="12.354546">
  <title
     id="title5316">Geeklog logo high-res</title>
  <sodipodi:namedview
     id="base"
     pagecolor="#ffffff"
     bordercolor="#666666"
     borderopacity="1.0"
     inkscape:pageopacity="0.0"
     inkscape:pageshadow="2"
     inkscape:zoom="7.7815151"
     inkscape:cx="75.499435"
     inkscape:cy="28"
     inkscape:document-units="px"
     inkscape:current-layer="layer1"
     showgrid="true"
     inkscape:window-width="1280"
     inkscape:window-height="949"
     inkscape:window-x="0"
     inkscape:window-y="24"
     inkscape:window-maximized="1"
     showguides="true"
     inkscape:guide-bbox="true">
    <inkscape:grid
       type="xygrid"
       id="grid2887"
       empspacing="5"
       visible="true"
       enabled="true"
       snapvisiblegridlinesonly="true" />
  </sodipodi:namedview>
  <defs
     id="defs4">
    <inkscape:path-effect
       is_visible="true"
       id="path-effect4271"
       effect="spiro" />
    <inkscape:path-effect
       is_visible="true"
       id="path-effect3721"
       effect="spiro" />
    <inkscape:path-effect
       is_visible="true"
       id="path-effect3717"
       effect="spiro" />
    <inkscape:perspective
       id="perspective10"
       inkscape:persp3d-origin="372.04724 : 350.78739 : 1"
       inkscape:vp_z="744.09448 : 526.18109 : 1"
       inkscape:vp_y="0 : 1000 : 0"
       inkscape:vp_x="0 : 526.18109 : 1"
       sodipodi:type="inkscape:persp3d" />
    <inkscape:perspective
       sodipodi:type="inkscape:persp3d"
       inkscape:vp_x="0 : 0.5 : 1"
       inkscape:vp_y="0 : 1000 : 0"
       inkscape:vp_z="1 : 0.5 : 1"
       inkscape:persp3d-origin="0.5 : 0.33333333 : 1"
       id="perspective2845" />
    <inkscape:perspective
       sodipodi:type="inkscape:persp3d"
       inkscape:vp_x="0 : 0.5 : 1"
       inkscape:vp_y="0 : 1000 : 0"
       inkscape:vp_z="1 : 0.5 : 1"
       inkscape:persp3d-origin="0.5 : 0.33333333 : 1"
       id="perspective3701" />
    <inkscape:perspective
       id="perspective2857"
       inkscape:persp3d-origin="0.5 : 0.33333333 : 1"
       inkscape:vp_z="1 : 0.5 : 1"
       inkscape:vp_y="0 : 1000 : 0"
       inkscape:vp_x="0 : 0.5 : 1"
       sodipodi:type="inkscape:persp3d" />
  </defs>
  <metadata
     id="metadata7">
    <rdf:RDF>
      <cc:Work
         rdf:about="">
        <dc:format>image/svg+xml</dc:format>
        <dc:type
           rdf:resource="http://purl.org/dc/dcmitype/StillImage" />
        <dc:title>Geeklog logo high-res</dc:title>
        <dc:date>13-10-2010</dc:date>
        <dc:creator>
          <cc:Agent>
            <dc:title>Simon Lord, Rouslan Placella</dc:title>
          </cc:Agent>
        </dc:creator>
        <dc:description />
      </cc:Work>
    </rdf:RDF>
  </metadata>
  <g
     transform="translate(-478.32739,-826.33773)"
     id="layer1"
     inkscape:groupmode="layer"
     inkscape:label="Layer 1">
    <text
       xml:space="preserve"
       style="font-size:34.57897186px;font-style:normal;font-weight:normal;fill:#eeeeec;fill-opacity:1;stroke:none;font-family:VAGRounded BT;-inkscape-font-specification:VAGRounded BT"
       x="527.84442"
       y="863.2522"
       id="text2845"><tspan
         sodipodi:role="line"
         id="tspan2847"
         x="527.84442"
         y="863.2522"
         style="font-size:34.57897186px;letter-spacing:-0.68064559;fill:#eeeeec;fill-opacity:1;stroke:none">eeklog</tspan></text>
    <g
       id="g2836">
      <path
         sodipodi:nodetypes="ccccc"
         id="path2835"
         d="m 502.09386,875.86498 c -6.14506,-6.30544 -14.06189,-16.51555 -22.73733,-26.07729 4.10285,-5.19293 19.70766,-16.77602 28.38955,-20.55353 l 8.09295,10.66215 -13.74517,35.96867 z"
         style="fill:none;stroke:#000000;stroke-width:2.05827212;stroke-linecap:round;stroke-linejoin:round;stroke-miterlimit:4;stroke-opacity:1;stroke-dasharray:none" />
      <path
         sodipodi:nodetypes="ccccc"
         id="path3627"
         d="m 503.69961,875.73652 c -5.66178,-1.62466 -14.89774,-17.66903 -23.37964,-26.07729 8.65234,-7.7133 16.38495,-13.85131 27.49034,-20.36084 l 14.83708,18.62664 -18.94778,27.81149 z"
         style="fill:#ffffff;fill-opacity:1;stroke:none" />
      <path
         sodipodi:nodetypes="cc"
         id="path5294"
         d="m 530.86771,850.25381 c 0.47068,1.58764 -0.11287,3.36084 -2.19753,4.26387"
         style="fill:none;stroke:#000000;stroke-width:2.74436283;stroke-linecap:butt;stroke-linejoin:round;stroke-miterlimit:4;stroke-opacity:1;stroke-dasharray:none" />
      <path
         sodipodi:nodetypes="ccccc"
         id="path5174"
         d="m 501.02413,880.3596 c -4.27662,-14.62161 -10.23649,-26.65427 -15.95636,-38.87045 10.07866,-6.46616 22.55386,-10.11524 35.06689,-13.17328 5.12348,14.37928 9.56074,28.85133 12.70943,43.23062 -10.4298,1.87021 -20.45102,4.42534 -31.81996,8.81311 z"
         style="fill:none;stroke:#000000;stroke-width:2.05827212;stroke-linecap:round;stroke-linejoin:round;stroke-miterlimit:4;stroke-opacity:1;stroke-dasharray:none" />
      <path
         sodipodi:nodetypes="ccccc"
         id="path5178"
         d="m 486.27377,841.58755 c 12.33735,-7.01102 24.07262,-10.08754 33.68098,-12.73194 4.87982,14.35028 8.49316,28.27403 12.16873,42.19423 -10.59536,1.98205 -20.84581,4.90041 -30.94661,8.36614 -2.06366,-5.33696 -8.79293,-25.62619 -14.9031,-37.82843 z"
         style="fill:#eeeeec;fill-opacity:0.99607843;stroke:none" />
      <path
         sodipodi:nodetypes="ccccc"
         id="path5184"
         d="m 491.60732,844.84198 10.10209,29.71589 c 8.31984,-3.13794 17.13227,-5.78329 26.50158,-7.87176 -2.45309,-10.49841 -5.53194,-20.74652 -8.85572,-30.89665 -10.49964,2.2435 -20.84796,4.58067 -27.74795,9.05252 z"
         style="fill:#75507b;fill-opacity:1;stroke:none" />
      <g
         transform="matrix(0.13721814,0,0,0.13721814,477.83174,736.97688)"
         id="g5239">
        <path
           style="fill:none;stroke:#ffffff;stroke-width:40;stroke-linecap:round;stroke-linejoin:round;stroke-miterlimit:4;stroke-opacity:1;stroke-dasharray:none"
           d="m 275.83846,127.20072 c -6.44292,-16.83056 -113.17642,-20.49931 -112.85526,73.90071 0.16033,47.12754 40.43466,86.08697 78.22724,85.77008 90.01469,-0.75475 78.14976,-95.76642 67.61389,-102.30403"
           id="path5186"
           transform="translate(0,659.36218)"
           sodipodi:nodetypes="csss" />
        <path
           sodipodi:nodetypes="csss"
           transform="translate(0,659.36218)"
           id="path5188"
           d="m 275.83846,127.20072 c -3.73863,-6.01338 -104.7255,-24.55575 -104.40434,69.84427 0.16033,47.12754 34.38175,88.70322 72.14258,87.12223 90.69076,-3.79708 65.98043,-89.00569 65.24763,-99.59974"
           style="fill:none;stroke:#ffffff;stroke-width:40;stroke-linecap:round;stroke-linejoin:round;stroke-miterlimit:4;stroke-opacity:1;stroke-dasharray:none" />
        <path
           style="fill:none;stroke:#eeeeec;stroke-width:19;stroke-linecap:round;stroke-linejoin:miter;stroke-miterlimit:4;stroke-opacity:1;stroke-dasharray:none"
           d="M 253.52761,202.34724 315.72638,182.7411"
           id="path5237"
           transform="translate(0,659.36218)" />
      </g>
      <path
         style="fill:none;stroke:#000000;stroke-width:2.74436283;stroke-linecap:round;stroke-linejoin:round;stroke-miterlimit:4;stroke-opacity:1;stroke-dasharray:none"
         d="m 520.82162,855.12563 -6.59939,2.17997 c -0.62445,0.18613 -2.2546,0.10658 -2.90272,-1.60715 -0.54417,-1.82581 0.77031,-2.76605 1.47596,-3.01751 l 13.97237,-4.52626 c 1.34223,-0.39106 3.56658,0.2381 4.09987,2.09913"
         id="path5292"
         sodipodi:nodetypes="cccccc" />
      <path
         style="fill:none;stroke:#babdb6;stroke-width:0.960527;stroke-linecap:round;stroke-linejoin:round;stroke-miterlimit:4;stroke-opacity:1;stroke-dasharray:none"
         d="m 530.86771,850.25381 c 0.47068,1.58764 -0.11287,3.36084 -2.19753,4.26387"
         id="path5286"
         sodipodi:nodetypes="cc" />
      <path
         sodipodi:nodetypes="cccccc"
         id="path5180"
         d="m 520.82162,855.12563 -6.59939,2.17997 c -0.62445,0.18613 -2.2546,0.10658 -2.90272,-1.60715 -0.54417,-1.82581 0.77031,-2.76605 1.47596,-3.01751 l 13.97237,-4.52626 c 1.34223,-0.39106 3.56658,0.2381 4.09987,2.09913"
         style="fill:none;stroke:#babdb6;stroke-width:0.960527;stroke-linecap:round;stroke-linejoin:round;stroke-miterlimit:4;stroke-opacity:1;stroke-dasharray:none" />
      <path
         sodipodi:nodetypes="cc"
         id="path3647"
         d="m 529.74451,858.07415 c -0.53754,-2.05028 -1.1151,-4.10055 -1.71788,-6.15082"
         style="fill:#a40000;stroke:#000000;stroke-width:1.64661765;stroke-linecap:butt;stroke-linejoin:miter;stroke-miterlimit:4;stroke-opacity:1;stroke-dasharray:none" />
    </g>
  </g>
</svg>
