<?xml version="1.0" encoding="UTF-8" standalone="no"?>
<!-- Created with Inkscape (http://www.inkscape.org/) -->

<svg
   xmlns:dc="http://purl.org/dc/elements/1.1/"
   xmlns:cc="http://creativecommons.org/ns#"
   xmlns:rdf="http://www.w3.org/1999/02/22-rdf-syntax-ns#"
   xmlns:svg="http://www.w3.org/2000/svg"
   xmlns="http://www.w3.org/2000/svg"
   xmlns:xlink="http://www.w3.org/1999/xlink"
   xmlns:sodipodi="http://sodipodi.sourceforge.net/DTD/sodipodi-0.dtd"
   xmlns:inkscape="http://www.inkscape.org/namespaces/inkscape"
   width="48"
   height="48"
   id="svg2"
   version="1.1"
   inkscape:version="0.47 r22583"
   sodipodi:docname="plugins.svg">
  <defs
     id="defs4">
    <linearGradient
       inkscape:collect="always"
       id="linearGradient3609">
      <stop
         style="stop-color:#ffffff;stop-opacity:1;"
         offset="0"
         id="stop3611" />
      <stop
         style="stop-color:#ffffff;stop-opacity:0;"
         offset="1"
         id="stop3614" />
    </linearGradient>
    <linearGradient
       inkscape:collect="always"
       id="linearGradient3611">
      <stop
         style="stop-color:#000000;stop-opacity:1;"
         offset="0"
         id="stop3613" />
      <stop
         style="stop-color:#000000;stop-opacity:0;"
         offset="1"
         id="stop3615" />
    </linearGradient>
    <linearGradient
       inkscape:collect="always"
       id="linearGradient3887">
      <stop
         style="stop-color:#ffffff;stop-opacity:1;"
         offset="0"
         id="stop3889" />
      <stop
         style="stop-color:#ffffff;stop-opacity:0;"
         offset="1"
         id="stop3891" />
    </linearGradient>
    <linearGradient
       id="linearGradient3867">
      <stop
         style="stop-color:#73d216;stop-opacity:1;"
         offset="0"
         id="stop3869" />
      <stop
         style="stop-color:#4e9a06;stop-opacity:1;"
         offset="1"
         id="stop3871" />
    </linearGradient>
    <inkscape:perspective
       sodipodi:type="inkscape:persp3d"
       inkscape:vp_x="0 : 526.18109 : 1"
       inkscape:vp_y="0 : 1000 : 0"
       inkscape:vp_z="744.09448 : 526.18109 : 1"
       inkscape:persp3d-origin="372.04724 : 350.78739 : 1"
       id="perspective10" />
    <inkscape:perspective
       id="perspective2902"
       inkscape:persp3d-origin="0.5 : 0.33333333 : 1"
       inkscape:vp_z="1 : 0.5 : 1"
       inkscape:vp_y="0 : 1000 : 0"
       inkscape:vp_x="0 : 0.5 : 1"
       sodipodi:type="inkscape:persp3d" />
    <inkscape:perspective
       id="perspective3772"
       inkscape:persp3d-origin="0.5 : 0.33333333 : 1"
       inkscape:vp_z="1 : 0.5 : 1"
       inkscape:vp_y="0 : 1000 : 0"
       inkscape:vp_x="0 : 0.5 : 1"
       sodipodi:type="inkscape:persp3d" />
    <inkscape:perspective
       id="perspective3830"
       inkscape:persp3d-origin="0.5 : 0.33333333 : 1"
       inkscape:vp_z="1 : 0.5 : 1"
       inkscape:vp_y="0 : 1000 : 0"
       inkscape:vp_x="0 : 0.5 : 1"
       sodipodi:type="inkscape:persp3d" />
    <linearGradient
       inkscape:collect="always"
       xlink:href="#linearGradient3867"
       id="linearGradient3873"
       x1="9.4405432"
       y1="1015.0381"
       x2="50.4161"
       y2="1052.5703"
       gradientUnits="userSpaceOnUse" />
    <linearGradient
       inkscape:collect="always"
       xlink:href="#linearGradient3887"
       id="linearGradient3893"
       x1="4.1708155"
       y1="1004.6392"
       x2="50.245369"
       y2="1055.8071"
       gradientUnits="userSpaceOnUse" />
    <linearGradient
       inkscape:collect="always"
       xlink:href="#linearGradient3867"
       id="linearGradient3904"
       gradientUnits="userSpaceOnUse"
       x1="9.4405432"
       y1="1015.0381"
       x2="50.4161"
       y2="1052.5703"
       gradientTransform="translate(0,-1004.3622)" />
    <radialGradient
       inkscape:collect="always"
       xlink:href="#linearGradient3611"
       id="radialGradient3617"
       cx="24.241034"
       cy="40.631275"
       fx="24.241034"
       fy="40.631275"
       r="13.291248"
       gradientTransform="matrix(1,0,0,0.32642487,0,27.368217)"
       gradientUnits="userSpaceOnUse" />
    <radialGradient
       inkscape:collect="always"
       xlink:href="#linearGradient3611"
       id="radialGradient3625"
       gradientUnits="userSpaceOnUse"
       gradientTransform="matrix(1,0,0,0.32642487,0,27.368217)"
       cx="24.241034"
       cy="40.631275"
       fx="24.241034"
       fy="40.631275"
       r="13.291248" />
    <linearGradient
       inkscape:collect="always"
       xlink:href="#linearGradient3887"
       id="linearGradient3627"
       gradientUnits="userSpaceOnUse"
       x1="8.7160091"
       y1="1010.424"
       x2="50.245369"
       y2="1055.8071" />
    <linearGradient
       inkscape:collect="always"
       xlink:href="#linearGradient3609"
       id="linearGradient3616"
       x1="-0.026025239"
       y1="1004.4048"
       x2="47.628433"
       y2="1052.0604"
       gradientUnits="userSpaceOnUse" />
    <linearGradient
       inkscape:collect="always"
       xlink:href="#linearGradient3887"
       id="linearGradient3620"
       x1="-0.011263192"
       y1="1004.4646"
       x2="47.810612"
       y2="1052.1202"
       gradientUnits="userSpaceOnUse" />
    <inkscape:perspective
       id="perspective2859"
       inkscape:persp3d-origin="0.5 : 0.33333333 : 1"
       inkscape:vp_z="1 : 0.5 : 1"
       inkscape:vp_y="0 : 1000 : 0"
       inkscape:vp_x="0 : 0.5 : 1"
       sodipodi:type="inkscape:persp3d" />
    <radialGradient
       inkscape:collect="always"
       xlink:href="#linearGradient3678"
       id="radialGradient3684"
       cx="23.827833"
       cy="44.177906"
       fx="23.827833"
       fy="44.177906"
       r="16.114779"
       gradientTransform="matrix(1,0,0,0.21581196,0,34.643785)"
       gradientUnits="userSpaceOnUse" />
    <linearGradient
       inkscape:collect="always"
       id="linearGradient3678">
      <stop
         style="stop-color:#000000;stop-opacity:1;"
         offset="0"
         id="stop3680" />
      <stop
         style="stop-color:#000000;stop-opacity:0;"
         offset="1"
         id="stop3682" />
    </linearGradient>
    <radialGradient
       r="16.114779"
       fy="44.177906"
       fx="23.827833"
       cy="44.177906"
       cx="23.827833"
       gradientTransform="matrix(1,0,0,0.21581196,0,34.643785)"
       gradientUnits="userSpaceOnUse"
       id="radialGradient2868"
       xlink:href="#linearGradient3678"
       inkscape:collect="always" />
    <linearGradient
       inkscape:collect="always"
       xlink:href="#linearGradient3867"
       id="linearGradient2851"
       gradientUnits="userSpaceOnUse"
       x1="9.4405432"
       y1="1015.0381"
       x2="50.4161"
       y2="1052.5703" />
    <linearGradient
       inkscape:collect="always"
       xlink:href="#linearGradient3887"
       id="linearGradient2853"
       gradientUnits="userSpaceOnUse"
       x1="-0.011263192"
       y1="1004.4646"
       x2="47.810612"
       y2="1052.1202" />
    <inkscape:perspective
       id="perspective2902-0"
       inkscape:persp3d-origin="0.5 : 0.33333333 : 1"
       inkscape:vp_z="1 : 0.5 : 1"
       inkscape:vp_y="0 : 1000 : 0"
       inkscape:vp_x="0 : 0.5 : 1"
       sodipodi:type="inkscape:persp3d" />
    <radialGradient
       inkscape:collect="always"
       xlink:href="#linearGradient3041"
       id="radialGradient2260"
       gradientUnits="userSpaceOnUse"
       gradientTransform="matrix(1,0,0,0.374558,0,24.47041)"
       cx="24.8125"
       cy="39.125"
       fx="24.8125"
       fy="39.125"
       r="17.6875" />
    <linearGradient
       inkscape:collect="always"
       id="linearGradient3041">
      <stop
         style="stop-color:#000000;stop-opacity:1;"
         offset="0"
         id="stop3043" />
      <stop
         style="stop-color:#000000;stop-opacity:0;"
         offset="1"
         id="stop3045" />
    </linearGradient>
    <radialGradient
       r="17.6875"
       fy="39.125"
       fx="24.8125"
       cy="39.125"
       cx="24.8125"
       gradientTransform="matrix(1,0,0,0.374558,0,24.47041)"
       gradientUnits="userSpaceOnUse"
       id="radialGradient2911"
       xlink:href="#linearGradient3041"
       inkscape:collect="always" />
    <radialGradient
       inkscape:collect="always"
       xlink:href="#linearGradient3041"
       id="radialGradient2869"
       gradientUnits="userSpaceOnUse"
       gradientTransform="matrix(1,0,0,0.374558,0,24.47041)"
       cx="24.8125"
       cy="39.125"
       fx="24.8125"
       fy="39.125"
       r="17.6875" />
  </defs>
  <sodipodi:namedview
     id="base"
     pagecolor="#ffffff"
     bordercolor="#666666"
     borderopacity="1.0"
     inkscape:pageopacity="0.0"
     inkscape:pageshadow="2"
     inkscape:zoom="14.520833"
     inkscape:cx="24"
     inkscape:cy="24"
     inkscape:document-units="px"
     inkscape:current-layer="layer1"
     showgrid="true"
     inkscape:snap-global="false"
     inkscape:window-width="1280"
     inkscape:window-height="949"
     inkscape:window-x="0"
     inkscape:window-y="24"
     inkscape:window-maximized="1">
    <inkscape:grid
       type="xygrid"
       id="grid3815"
       empspacing="5"
       visible="true"
       enabled="true"
       snapvisiblegridlinesonly="true" />
  </sodipodi:namedview>
  <metadata
     id="metadata7">
    <rdf:RDF>
      <cc:Work
         rdf:about="">
        <dc:format>image/svg+xml</dc:format>
        <dc:type
           rdf:resource="http://purl.org/dc/dcmitype/StillImage" />
        <dc:title />
      </cc:Work>
    </rdf:RDF>
  </metadata>
  <g
     inkscape:label="Layer 1"
     inkscape:groupmode="layer"
     id="layer1"
     transform="translate(0,-1004.3622)">
    <g
       id="g2857">
      <path
         sodipodi:type="arc"
         style="opacity:0.19886367;color:#000000;fill:url(#radialGradient2911);fill-opacity:1;fill-rule:nonzero;stroke:none;stroke-width:1;marker:none;visibility:visible;display:inline;overflow:visible"
         id="path2258"
         sodipodi:cx="24.8125"
         sodipodi:cy="39.125"
         sodipodi:rx="17.6875"
         sodipodi:ry="6.625"
         d="m 42.5,39.125 c 0,3.658886 -7.918963,6.625 -17.6875,6.625 -9.768537,0 -17.6875,-2.966114 -17.6875,-6.625 0,-3.658886 7.918963,-6.625 17.6875,-6.625 9.768537,0 17.6875,2.966114 17.6875,6.625 z"
         transform="matrix(0.751118,0,0,0.578703,-3.3517157,1024.8865)" />
      <path
         transform="matrix(0.751118,0,0,0.578703,13.148284,1024.8865)"
         d="m 42.5,39.125 c 0,3.658886 -7.918963,6.625 -17.6875,6.625 -9.768537,0 -17.6875,-2.966114 -17.6875,-6.625 0,-3.658886 7.918963,-6.625 17.6875,-6.625 9.768537,0 17.6875,2.966114 17.6875,6.625 z"
         sodipodi:ry="6.625"
         sodipodi:rx="17.6875"
         sodipodi:cy="39.125"
         sodipodi:cx="24.8125"
         id="path2867"
         style="opacity:0.19886367;color:#000000;fill:url(#radialGradient2869);fill-opacity:1;fill-rule:nonzero;stroke:none;stroke-width:1;marker:none;visibility:visible;display:inline;overflow:visible"
         sodipodi:type="arc" />
      <g
         transform="translate(0,-1.0002827)"
         id="g2846">
        <path
           style="fill:url(#linearGradient2851);fill-opacity:1;stroke:#4e9a06;stroke-width:1;stroke-miterlimit:4;stroke-opacity:1;stroke-dasharray:none"
           d="m 22.857067,1007.8992 c -1.756653,-0.028 -3.623318,0.3968 -4.812501,1.2813 -1.542045,1.1467 -1.637042,1.6834 -0.65625,3.875 1.953149,4.3643 1.314921,4.9962 -2.188757,4.8487 -6.0632357,-0.2525 -5.8552028,0.5547 -5.6824717,5.1825 0.1974565,5.3624 -0.3603103,4.5463 -3.8787713,4.4375 -2.949801,-0.091 -3.7041871,0.2412 -3.9502331,2 -0.516917,3.6951 1.6483481,6.2415 4.7314831,5.7813 1.7070748,-0.2548 2.7955924,-0.3283 3.0356498,1.1875 0.1440344,0.9095 0.061872,2.461 0.061872,4.8443 0.2735781,7.7945 -1.4353943,7.6806 6.3712282,7.5612 2.636299,0.026 3.710139,0.047 4.349534,-0.2436 0.841691,-0.5501 0.463197,-1.3911 0.25,-2.3501 -1.239104,-4.9252 -0.617401,-6.3261 2.087966,-7.3125 1.243522,-0.4534 2.059382,-0.5891 2.78125,-0.3438 0.02096,0.01 0.04169,0.024 0.0625,0.031 0.508106,0.1702 0.849956,0.5774 1.25,0.9058 1.292134,1.3141 1.115181,1.9183 0.46875,4.0625 -0.898962,2.9818 -1.275961,4.4099 -0.09317,4.9254 1.437581,0.6266 2.676952,0.3433 4.223368,0.344 8.405177,0 5.750392,-0.9517 6.225117,-7.2939 0.602191,-8.0452 0.06251,-7.2605 3.738433,-5.8814 2.463651,0.9243 3.113413,0.7752 4.1875,-0.7188 1.530144,-2.1283 1.567092,-3.75 0.21875,-6.3125 -0.829535,-1.5764 -1.589661,-1.8334 -4.15625,-1.3437 -3.152932,0.6016 -3.917606,1.24 -4.005657,-4.3744 -0.02582,-1.6276 0.317833,-3.567 -0.400593,-4.5319 -0.687469,-0.9233 -3.330794,-0.501 -5.030621,-0.4957 -5.762474,0.018 -5.954071,-0.083 -4.844379,-3.91 0.71587,-2.4689 0.718008,-3.6092 -0.1875,-4.7188 -0.746797,-0.9152 -2.399597,-1.4096 -4.15625,-1.4375 l 0,6e-4 z"
           id="path3792-0"
           sodipodi:nodetypes="cssssssssccccssccssssssssssssscc" />
        <path
           sodipodi:type="inkscape:offset"
           inkscape:radius="-0.9384973"
           inkscape:original="M 22.84375 1007.9062 C 21.087097 1007.8782 19.220433 1008.303 18.03125 1009.1875 C 16.489205 1010.3342 16.394208 1010.8709 17.375 1013.0625 C 19.328149 1017.4268 18.691178 1018.0538 15.1875 1017.9062 C 9.1242643 1017.6537 9.3585189 1018.466 9.53125 1023.0938 C 9.7287065 1028.4561 9.143461 1027.6401 5.625 1027.5312 C 2.675199 1027.4403 1.933546 1027.7724 1.6875 1029.5312 C 1.170583 1033.2263 3.323115 1035.7727 6.40625 1035.3125 C 8.1133248 1035.0577 9.2286926 1034.9842 9.46875 1036.5 C 9.6127844 1037.4095 9.53125 1038.9605 9.53125 1041.3438 C 9.8048281 1049.1382 8.0683775 1049.0256 15.875 1048.9062 C 18.511299 1048.9323 19.610605 1048.9468 20.25 1048.6562 C 21.091691 1048.1062 20.713197 1047.2715 20.5 1046.3125 C 19.260896 1041.3873 19.857133 1039.9864 22.5625 1039 C 23.806022 1038.5466 24.621882 1038.4109 25.34375 1038.6562 C 25.36471 1038.6662 25.38544 1038.6805 25.40625 1038.6875 C 25.914356 1038.8577 26.256206 1039.2653 26.65625 1039.5938 C 27.948384 1040.9079 27.771431 1041.5121 27.125 1043.6562 C 26.226038 1046.6381 25.848459 1048.047 27.03125 1048.5625 C 28.468831 1049.1891 29.734834 1048.9055 31.28125 1048.9062 C 39.686427 1048.9062 37.025275 1047.9672 37.5 1041.625 C 38.102191 1033.5798 37.542827 1034.3709 41.21875 1035.75 C 43.682401 1036.6743 44.332163 1036.5253 45.40625 1035.0312 C 46.936394 1032.9029 46.973342 1031.2812 45.625 1028.7188 C 44.795465 1027.1424 44.035339 1026.8853 41.46875 1027.375 C 38.315818 1027.9766 37.556801 1028.6144 37.46875 1023 C 37.44293 1021.3724 37.780926 1019.4336 37.0625 1018.4688 C 36.375031 1017.5454 33.731077 1017.9635 32.03125 1017.9688 C 26.268776 1017.9868 26.077808 1017.8895 27.1875 1014.0625 C 27.90337 1011.5936 27.905508 1010.4533 27 1009.3438 C 26.253203 1008.4285 24.600403 1007.9342 22.84375 1007.9062 z "
           xlink:href="#path3618"
           style="fill:none;stroke:url(#linearGradient2853);stroke-width:1;stroke-miterlimit:4;stroke-opacity:1;stroke-dasharray:none"
           id="path2838"
           inkscape:href="#path3618"
           d="m 22.84375,1008.8438 c -1.594817,-0.025 -3.32272,0.404 -4.25,1.0937 -0.722168,0.537 -0.87483,0.7842 -0.90625,0.9687 -0.03142,0.1846 0.05714,0.7219 0.53125,1.7813 0.499479,1.1161 0.846118,2.0067 1.03125,2.7813 0.185132,0.7745 0.24405,1.4707 -0.09375,2.125 -0.3378,0.6542 -1.018629,1.0201 -1.6875,1.1562 -0.668871,0.1361 -1.407469,0.1319 -2.3125,0.094 -1.495159,-0.062 -2.59453,-0.067 -3.3125,0.031 -0.71797,0.098 -0.990993,0.2892 -1.125,0.4375 -0.134007,0.1483 -0.239025,0.4016 -0.28125,1.0313 -0.04223,0.6296 -0.01219,1.5549 0.03125,2.7187 0.04996,1.3567 0.06362,2.3438 -0.03125,3.125 -0.09487,0.7812 -0.316051,1.4556 -0.875,1.9063 -0.5589485,0.4506 -1.2271604,0.4778 -1.84375,0.4687 -0.6165896,-0.01 -1.2808046,-0.068 -2.125,-0.094 -1.4373104,-0.044 -2.2528478,0.08 -2.53125,0.2187 -0.1392011,0.069 -0.1809547,0.091 -0.25,0.2187 -0.069045,0.1274 -0.1343898,0.3704 -0.1875,0.75 -0.2295974,1.6413 0.1222905,2.9202 0.78125,3.7188 0.6589595,0.7986 1.6149449,1.1881 2.875,1 0.8700228,-0.1299 1.6232197,-0.2484 2.4375,-0.031 0.4071401,0.1085 0.8269364,0.322 1.125,0.6874 0.298064,0.3655 0.48474,0.8215 0.5625,1.3126 0.177262,1.1193 0.06378,2.6322 0.0625,4.9687 -8e-6,0.015 0,0.016 0,0.031 0.06739,1.9628 0.0023,3.4548 0,4.5 -0.0023,1.0524 0.129339,1.6054 0.21875,1.75 0.08941,0.1445 0.200672,0.2602 1.03125,0.3437 0.830578,0.083 2.201807,0.061 4.15625,0.031 2.575443,0.025 3.614623,-0.043 3.90625,-0.1563 0.03025,-0.015 0.06771,0 0.0625,-0.125 -0.0078,-0.1934 -0.130387,-0.6182 -0.25,-1.1563 -0.633378,-2.5175 -0.868503,-4.2124 -0.4375,-5.625 0.431003,-1.4125 1.627579,-2.2466 3.09375,-2.7812 1.311018,-0.478 2.380586,-0.6923 3.40625,-0.3438 a 0.93859115,0.93859115 0 0 1 0.0625,0.031 0.93859115,0.93859115 0 0 1 0.03125,0 c 0.793943,0.2768 1.195806,0.8127 1.5,1.0625 a 0.93859115,0.93859115 0 0 1 0.0625,0.062 c 0.711499,0.7236 1.196936,1.4639 1.25,2.3125 0.05306,0.8486 -0.207833,1.6148 -0.53125,2.6875 -0.448172,1.4866 -0.767499,2.5533 -0.8125,3.1563 -0.0225,0.3014 0.04256,0.4571 0.0625,0.5 0.01994,0.043 -0.0104,0.035 0.125,0.094 1.15749,0.5045 2.21361,0.2805 3.875,0.2813 2.08382,0 3.48072,-0.059 4.28125,-0.2188 0.80053,-0.1594 0.851056,-0.269 0.9375,-0.4688 0.08644,-0.1997 0.113498,-0.8088 0.0625,-1.7812 -0.051,-0.9724 -0.123682,-2.2851 0,-3.9375 0.149826,-2.0017 0.220318,-3.4667 0.3125,-4.5313 0.09218,-1.0645 0.124543,-1.7205 0.53125,-2.375 0.203353,-0.3272 0.632295,-0.6171 1.03125,-0.6874 0.398955,-0.07 0.69844,0 1,0.094 0.603121,0.1812 1.240977,0.4808 2.125,0.8125 1.190891,0.4468 1.818127,0.5494 2.09375,0.5 0.275623,-0.049 0.50668,-0.22 1,-0.9062 0.701212,-0.9754 0.975377,-1.7048 1,-2.4688 0.02462,-0.764 -0.240468,-1.6379 -0.875,-2.8438 -0.369547,-0.7022 -0.548383,-0.8936 -0.875,-1 -0.326617,-0.1063 -1.01316,-0.1109 -2.25,0.125 -0.765054,0.146 -1.417049,0.3076 -2.03125,0.375 -0.614201,0.068 -1.301816,0.044 -1.875,-0.4062 -0.573184,-0.4501 -0.848495,-1.1157 -1,-1.9375 -0.151505,-0.8218 -0.196401,-1.8875 -0.21875,-3.3125 -0.01403,-0.8846 0.07032,-1.7589 0.0625,-2.5 -0.0078,-0.7411 -0.143997,-1.2844 -0.28125,-1.4688 0.02047,0.028 -0.05766,-0.063 -0.3125,-0.125 -0.254838,-0.062 -0.652336,-0.089 -1.09375,-0.094 -0.882828,-0.01 -1.949659,0.091 -2.875,0.094 -1.443276,0 -2.529091,0.01 -3.40625,-0.062 -0.877159,-0.072 -1.595461,-0.1855 -2.1875,-0.6563 -0.592039,-0.4708 -0.780033,-1.2719 -0.71875,-1.9687 0.06128,-0.6969 0.282776,-1.4416 0.5625,-2.4063 0.347242,-1.1976 0.486306,-2.0388 0.46875,-2.5937 -0.01756,-0.555 -0.115808,-0.8488 -0.46875,-1.2813 -0.422638,-0.518 -1.847455,-1.0684 -3.4375,-1.0937 z" />
        <path
           sodipodi:nodetypes="cssssssssccccssccssssssssssssscc"
           id="path3618"
           d="m 22.857067,1007.8992 c -1.756653,-0.028 -3.623318,0.3968 -4.812501,1.2813 -1.542045,1.1467 -1.637042,1.6834 -0.65625,3.875 1.953149,4.3643 1.314921,4.9962 -2.188757,4.8487 -6.0632357,-0.2525 -5.8552028,0.5547 -5.6824717,5.1825 0.1974565,5.3624 -0.3603103,4.5463 -3.8787713,4.4375 -2.949801,-0.091 -3.7041871,0.2412 -3.9502331,2 -0.516917,3.6951 1.6483481,6.2415 4.7314831,5.7813 1.7070748,-0.2548 2.7955924,-0.3283 3.0356498,1.1875 0.1440344,0.9095 0.061872,2.461 0.061872,4.8443 0.2735781,7.7945 -1.4353943,7.6806 6.3712282,7.5612 2.636299,0.026 3.710139,0.047 4.349534,-0.2436 0.841691,-0.5501 0.463197,-1.3911 0.25,-2.3501 -1.239104,-4.9252 -0.617401,-6.3261 2.087966,-7.3125 1.243522,-0.4534 2.059382,-0.5891 2.78125,-0.3438 0.02096,0.01 0.04169,0.024 0.0625,0.031 0.508106,0.1702 0.849956,0.5774 1.25,0.9058 1.292134,1.3141 1.115181,1.9183 0.46875,4.0625 -0.898962,2.9818 -1.275961,4.4099 -0.09317,4.9254 1.437581,0.6266 2.676952,0.3433 4.223368,0.344 8.405177,0 5.750392,-0.9517 6.225117,-7.2939 0.602191,-8.0452 0.06251,-7.2605 3.738433,-5.8814 2.463651,0.9243 3.113413,0.7752 4.1875,-0.7188 1.530144,-2.1283 1.567092,-3.75 0.21875,-6.3125 -0.829535,-1.5764 -1.589661,-1.8334 -4.15625,-1.3437 -3.152932,0.6016 -3.917606,1.24 -4.005657,-4.3744 -0.02582,-1.6276 0.317833,-3.567 -0.400593,-4.5319 -0.687469,-0.9233 -3.330794,-0.501 -5.030621,-0.4957 -5.762474,0.018 -5.954071,-0.083 -4.844379,-3.91 0.71587,-2.4689 0.718008,-3.6092 -0.1875,-4.7188 -0.746797,-0.9152 -2.399597,-1.4096 -4.15625,-1.4375 l 0,6e-4 z"
           style="fill:none;stroke:#4e9a06;stroke-width:1;stroke-miterlimit:4;stroke-opacity:1;stroke-dasharray:none" />
      </g>
    </g>
  </g>
</svg>
