<?xml version="1.0" encoding="UTF-8" standalone="no"?>
<!-- Created with Inkscape (http://www.inkscape.org/) -->

<svg
   xmlns:dc="http://purl.org/dc/elements/1.1/"
   xmlns:cc="http://creativecommons.org/ns#"
   xmlns:rdf="http://www.w3.org/1999/02/22-rdf-syntax-ns#"
   xmlns:svg="http://www.w3.org/2000/svg"
   xmlns="http://www.w3.org/2000/svg"
   xmlns:xlink="http://www.w3.org/1999/xlink"
   xmlns:sodipodi="http://sodipodi.sourceforge.net/DTD/sodipodi-0.dtd"
   xmlns:inkscape="http://www.inkscape.org/namespaces/inkscape"
   width="48"
   height="48"
   id="svg3681"
   version="1.1"
   inkscape:version="0.47 r22583"
   sodipodi:docname="spamx.svg"
   inkscape:export-filename="/home/roccivic/Desktop/pendrive/GL/geeklog.new.graphics/sources/spamx.png"
   inkscape:export-xdpi="90"
   inkscape:export-ydpi="90">
  <defs
     id="defs3683">
    <linearGradient
       id="linearGradient4425">
      <stop
         style="stop-color:#729fcf;stop-opacity:1;"
         offset="0"
         id="stop4427" />
      <stop
         id="stop3652"
         offset="1"
         style="stop-color:#b8cfe7;stop-opacity:1;" />
    </linearGradient>
    <linearGradient
       inkscape:collect="always"
       id="linearGradient4385">
      <stop
         style="stop-color:#000000;stop-opacity:1;"
         offset="0"
         id="stop4387" />
      <stop
         style="stop-color:#000000;stop-opacity:0;"
         offset="1"
         id="stop4389" />
    </linearGradient>
    <linearGradient
       id="linearGradient4343">
      <stop
         style="stop-color:#ef2929;stop-opacity:1;"
         offset="0"
         id="stop4345" />
      <stop
         style="stop-color:#cc0000;stop-opacity:1;"
         offset="1"
         id="stop4347" />
    </linearGradient>
    <linearGradient
       id="linearGradient4317">
      <stop
         style="stop-color:#ef2929;stop-opacity:1;"
         offset="0"
         id="stop4319" />
      <stop
         style="stop-color:#cc0000;stop-opacity:1;"
         offset="1"
         id="stop4321" />
    </linearGradient>
    <linearGradient
       id="linearGradient4309">
      <stop
         style="stop-color:#cc0000;stop-opacity:1;"
         offset="0"
         id="stop4311" />
      <stop
         style="stop-color:#ef2929;stop-opacity:1;"
         offset="1"
         id="stop4313" />
    </linearGradient>
    <linearGradient
       id="linearGradient4301">
      <stop
         style="stop-color:#ffffff;stop-opacity:0.86400002;"
         offset="0"
         id="stop4303" />
      <stop
         style="stop-color:#ffffff;stop-opacity:0;"
         offset="1"
         id="stop4305" />
    </linearGradient>
    <inkscape:perspective
       sodipodi:type="inkscape:persp3d"
       inkscape:vp_x="0 : 526.18109 : 1"
       inkscape:vp_y="0 : 1000 : 0"
       inkscape:vp_z="744.09448 : 526.18109 : 1"
       inkscape:persp3d-origin="372.04724 : 350.78739 : 1"
       id="perspective3689" />
    <radialGradient
       inkscape:collect="always"
       xlink:href="#linearGradient4343"
       id="radialGradient4367"
       cx="23.984375"
       cy="23.904057"
       fx="23.984375"
       fy="23.904057"
       r="21.449215"
       gradientTransform="matrix(1,0,0,0.99937378,0,1004.0373)"
       gradientUnits="userSpaceOnUse" />
    <radialGradient
       inkscape:collect="always"
       xlink:href="#linearGradient4343"
       id="radialGradient4375"
       cx="23.984375"
       cy="23.904057"
       fx="23.984375"
       fy="23.904057"
       r="21.449215"
       gradientTransform="matrix(1,0,0,0.99937378,0,1004.0373)"
       gradientUnits="userSpaceOnUse" />
    <linearGradient
       inkscape:collect="always"
       xlink:href="#linearGradient4301"
       id="linearGradient4381"
       x1="0"
       y1="0.3398"
       x2="61"
       y2="61.339802"
       gradientUnits="userSpaceOnUse"
       gradientTransform="translate(0,1004.0224)" />
    <radialGradient
       inkscape:collect="always"
       xlink:href="#linearGradient4385"
       id="radialGradient4391"
       cx="24.304161"
       cy="44.004303"
       fx="24.304161"
       fy="44.004303"
       r="15.695839"
       gradientTransform="matrix(1,0,0,0.12714808,0,38.40924)"
       gradientUnits="userSpaceOnUse" />
    <linearGradient
       inkscape:collect="always"
       xlink:href="#linearGradient4425"
       id="linearGradient4431"
       x1="48.0317"
       y1="1053.0597"
       x2="-4.4853024"
       y2="1008.7463"
       gradientUnits="userSpaceOnUse"
       gradientTransform="matrix(1.0027456,0,0,1.0027456,0.44675615,-15.814263)" />
    <inkscape:perspective
       id="perspective2873"
       inkscape:persp3d-origin="0.5 : 0.33333333 : 1"
       inkscape:vp_z="1 : 0.5 : 1"
       inkscape:vp_y="0 : 1000 : 0"
       inkscape:vp_x="0 : 0.5 : 1"
       sodipodi:type="inkscape:persp3d" />
    <radialGradient
       inkscape:collect="always"
       xlink:href="#linearGradient3041"
       id="radialGradient2260"
       gradientUnits="userSpaceOnUse"
       gradientTransform="matrix(1,0,0,0.374558,0,24.47041)"
       cx="24.8125"
       cy="39.125"
       fx="24.8125"
       fy="39.125"
       r="17.6875" />
    <linearGradient
       inkscape:collect="always"
       id="linearGradient3041">
      <stop
         style="stop-color:#000000;stop-opacity:1;"
         offset="0"
         id="stop3043" />
      <stop
         style="stop-color:#000000;stop-opacity:0;"
         offset="1"
         id="stop3045" />
    </linearGradient>
    <radialGradient
       r="17.6875"
       fy="39.125"
       fx="24.8125"
       cy="39.125"
       cx="24.8125"
       gradientTransform="matrix(1,0,0,0.374558,0,24.47041)"
       gradientUnits="userSpaceOnUse"
       id="radialGradient2882"
       xlink:href="#linearGradient3041"
       inkscape:collect="always" />
    <radialGradient
       inkscape:collect="always"
       xlink:href="#linearGradient3041"
       id="radialGradient2866"
       gradientUnits="userSpaceOnUse"
       gradientTransform="matrix(1,0,0,0.374558,0,24.47041)"
       cx="24.8125"
       cy="39.125"
       fx="24.8125"
       fy="39.125"
       r="17.6875" />
    <radialGradient
       inkscape:collect="always"
       xlink:href="#linearGradient3041"
       id="radialGradient2872"
       gradientUnits="userSpaceOnUse"
       gradientTransform="matrix(1,0,0,0.374558,0,24.47041)"
       cx="24.8125"
       cy="39.125"
       fx="24.8125"
       fy="39.125"
       r="17.6875" />
    <radialGradient
       inkscape:collect="always"
       xlink:href="#linearGradient3041"
       id="radialGradient2874"
       gradientUnits="userSpaceOnUse"
       gradientTransform="matrix(1,0,0,0.374558,0,24.47041)"
       cx="24.8125"
       cy="39.125"
       fx="24.8125"
       fy="39.125"
       r="17.6875" />
    <radialGradient
       inkscape:collect="always"
       xlink:href="#linearGradient3041"
       id="radialGradient2878"
       gradientUnits="userSpaceOnUse"
       gradientTransform="matrix(1,0,0,0.374558,0,24.47041)"
       cx="24.8125"
       cy="39.125"
       fx="24.8125"
       fy="39.125"
       r="17.6875" />
    <radialGradient
       inkscape:collect="always"
       xlink:href="#linearGradient3041"
       id="radialGradient2880"
       gradientUnits="userSpaceOnUse"
       gradientTransform="matrix(1,0,0,0.374558,0,24.47041)"
       cx="24.8125"
       cy="39.125"
       fx="24.8125"
       fy="39.125"
       r="17.6875" />
    <radialGradient
       inkscape:collect="always"
       xlink:href="#linearGradient3041"
       id="radialGradient2886"
       gradientUnits="userSpaceOnUse"
       gradientTransform="matrix(1,0,0,0.374558,0,24.47041)"
       cx="24.8125"
       cy="39.125"
       fx="24.8125"
       fy="39.125"
       r="17.6875" />
    <radialGradient
       inkscape:collect="always"
       xlink:href="#linearGradient3041"
       id="radialGradient2888"
       gradientUnits="userSpaceOnUse"
       gradientTransform="matrix(1,0,0,0.374558,0,24.47041)"
       cx="24.8125"
       cy="39.125"
       fx="24.8125"
       fy="39.125"
       r="17.6875" />
    <radialGradient
       inkscape:collect="always"
       xlink:href="#linearGradient3041"
       id="radialGradient3686"
       gradientUnits="userSpaceOnUse"
       gradientTransform="matrix(1,0,0,0.374558,0,24.47041)"
       cx="24.8125"
       cy="39.125"
       fx="24.8125"
       fy="39.125"
       r="17.6875" />
    <radialGradient
       inkscape:collect="always"
       xlink:href="#linearGradient3041"
       id="radialGradient3688"
       gradientUnits="userSpaceOnUse"
       gradientTransform="matrix(1,0,0,0.374558,0,24.47041)"
       cx="24.8125"
       cy="39.125"
       fx="24.8125"
       fy="39.125"
       r="17.6875" />
    <inkscape:perspective
       id="perspective2902"
       inkscape:persp3d-origin="0.5 : 0.33333333 : 1"
       inkscape:vp_z="1 : 0.5 : 1"
       inkscape:vp_y="0 : 1000 : 0"
       inkscape:vp_x="0 : 0.5 : 1"
       sodipodi:type="inkscape:persp3d" />
    <radialGradient
       inkscape:collect="always"
       xlink:href="#linearGradient3041-7"
       id="radialGradient2911"
       gradientUnits="userSpaceOnUse"
       gradientTransform="matrix(1,0,0,0.374558,0,24.47041)"
       cx="24.8125"
       cy="39.125"
       fx="24.8125"
       fy="39.125"
       r="17.6875" />
    <linearGradient
       inkscape:collect="always"
       id="linearGradient3041-7">
      <stop
         style="stop-color:#000000;stop-opacity:1;"
         offset="0"
         id="stop3043-3" />
      <stop
         style="stop-color:#000000;stop-opacity:0;"
         offset="1"
         id="stop3045-6" />
    </linearGradient>
    <radialGradient
       inkscape:collect="always"
       xlink:href="#linearGradient3041-7"
       id="radialGradient2913"
       gradientUnits="userSpaceOnUse"
       gradientTransform="matrix(1,0,0,0.374558,0,24.47041)"
       cx="24.8125"
       cy="39.125"
       fx="24.8125"
       fy="39.125"
       r="17.6875" />
    <radialGradient
       r="17.6875"
       fy="39.125"
       fx="24.8125"
       cy="39.125"
       cx="24.8125"
       gradientTransform="matrix(1,0,0,0.374558,0,24.47041)"
       gradientUnits="userSpaceOnUse"
       id="radialGradient2920"
       xlink:href="#linearGradient3041-7"
       inkscape:collect="always" />
    <linearGradient
       inkscape:collect="always"
       xlink:href="#linearGradient4301"
       id="linearGradient2880"
       gradientUnits="userSpaceOnUse"
       gradientTransform="translate(0,1004.0224)"
       x1="0"
       y1="0.3398"
       x2="61"
       y2="61.339802" />
    <radialGradient
       inkscape:collect="always"
       xlink:href="#linearGradient4343"
       id="radialGradient2883"
       gradientUnits="userSpaceOnUse"
       gradientTransform="matrix(1,0,0,0.99937378,0,1004.0373)"
       cx="23.984375"
       cy="23.904057"
       fx="23.984375"
       fy="23.904057"
       r="21.449215" />
    <radialGradient
       inkscape:collect="always"
       xlink:href="#linearGradient4343"
       id="radialGradient2885"
       gradientUnits="userSpaceOnUse"
       gradientTransform="matrix(1,0,0,0.99937378,0,1004.0373)"
       cx="23.984375"
       cy="23.904057"
       fx="23.984375"
       fy="23.904057"
       r="21.449215" />
  </defs>
  <sodipodi:namedview
     id="base"
     pagecolor="#ffffff"
     bordercolor="#000000"
     borderopacity="1"
     inkscape:pageopacity="0.0"
     inkscape:pageshadow="2"
     inkscape:zoom="14.520833"
     inkscape:cx="24"
     inkscape:cy="24"
     inkscape:document-units="px"
     inkscape:current-layer="layer1"
     showgrid="true"
     inkscape:window-width="1280"
     inkscape:window-height="949"
     inkscape:window-x="0"
     inkscape:window-y="24"
     inkscape:window-maximized="1"
     borderlayer="true"
     inkscape:snap-global="false">
    <inkscape:grid
       type="xygrid"
       id="grid3691"
       empspacing="5"
       visible="true"
       enabled="true"
       snapvisiblegridlinesonly="true" />
  </sodipodi:namedview>
  <metadata
     id="metadata3686">
    <rdf:RDF>
      <cc:Work
         rdf:about="">
        <dc:format>image/svg+xml</dc:format>
        <dc:type
           rdf:resource="http://purl.org/dc/dcmitype/StillImage" />
        <dc:title />
      </cc:Work>
    </rdf:RDF>
  </metadata>
  <g
     inkscape:label="Layer 1"
     inkscape:groupmode="layer"
     id="layer1"
     transform="translate(0,-1004.3622)">
    <g
       transform="translate(-4.9999999e-8,3.775e-5)"
       id="g2885">
      <path
         sodipodi:type="arc"
         style="opacity:0.2;color:#000000;fill:url(#radialGradient2911);fill-opacity:1;fill-rule:nonzero;stroke:none;stroke-width:1;marker:none;visibility:visible;display:inline;overflow:visible"
         id="path2258"
         sodipodi:cx="24.8125"
         sodipodi:cy="39.125"
         sodipodi:rx="17.6875"
         sodipodi:ry="6.625"
         d="m 42.5,39.125 c 0,3.658886 -7.918963,6.625 -17.6875,6.625 -9.768537,0 -17.6875,-2.966114 -17.6875,-6.625 0,-3.658886 7.918963,-6.625 17.6875,-6.625 9.768537,0 17.6875,2.966114 17.6875,6.625 z"
         transform="matrix(0.751118,0,0,0.578703,16.077485,1025.8865)" />
      <path
         transform="matrix(0.751118,0,0,0.578703,-5.3517157,1025.8865)"
         d="m 42.5,39.125 c 0,3.658886 -7.918963,6.625 -17.6875,6.625 -9.768537,0 -17.6875,-2.966114 -17.6875,-6.625 0,-3.658886 7.918963,-6.625 17.6875,-6.625 9.768537,0 17.6875,2.966114 17.6875,6.625 z"
         sodipodi:ry="6.625"
         sodipodi:rx="17.6875"
         sodipodi:cy="39.125"
         sodipodi:cx="24.8125"
         id="path2864"
         style="opacity:0.2;color:#000000;fill:url(#radialGradient2920);fill-opacity:1;fill-rule:nonzero;stroke:none;stroke-width:1;marker:none;visibility:visible;display:inline;overflow:visible"
         sodipodi:type="arc" />
    </g>
    <path
       style="fill:none;stroke:#a40000;stroke-width:3;stroke-linecap:round;stroke-linejoin:round;stroke-miterlimit:4;stroke-opacity:1;stroke-dasharray:none"
       d="m 8.09375,1006.9911 c -1.2604919,-0.018 -2.5163847,0.4539 -3.46875,1.4063 l -0.1875,0.1875 c -1.9047307,1.9047 -1.8649358,5.01 0.09375,6.9687 l 12.375,12.375 -12.375,12.375 c -1.9586858,1.9587 -1.9984807,5.064 -0.09375,6.9688 l 0.1875,0.1875 c 1.9047307,1.9047 5.0100642,1.8649 6.96875,-0.094 l 12.375,-12.375 12.375,12.375 c 1.958686,1.9587 5.095269,1.9985 7,0.094 l 0.1875,-0.1875 c 1.904731,-1.9048 1.864936,-5.0101 -0.09375,-6.9688 l -12.375,-12.375 12.375,-12.375 c 1.958686,-1.9587 1.998481,-5.064 0.09375,-6.9687 l -0.1875,-0.1875 c -0.952365,-0.9524 -2.208258,-1.4239 -3.46875,-1.4063 -1.260492,0.018 -2.551907,0.5207 -3.53125,1.5 l -12.375,12.375 -12.375,-12.375 c -0.979343,-0.9793 -2.2395081,-1.4824 -3.5,-1.5 z"
       id="rect3693" />
    <path
       style="fill:none;stroke:none"
       d="m 8.09375,1006.9911 c -1.2604919,-0.018 -2.5163847,0.4539 -3.46875,1.4063 l -0.1875,0.1875 c -1.9047307,1.9047 -1.8649358,5.01 0.09375,6.9687 l 12.375,12.375 -12.375,12.375 c -1.9586858,1.9587 -1.9984807,5.064 -0.09375,6.9688 l 0.1875,0.1875 c 1.9047307,1.9047 5.0100642,1.8649 6.96875,-0.094 l 12.375,-12.375 12.375,12.375 c 1.958686,1.9587 5.095269,1.9985 7,0.094 l 0.1875,-0.1875 c 1.904731,-1.9048 1.864936,-5.0101 -0.09375,-6.9688 l -12.375,-12.375 12.375,-12.375 c 1.958686,-1.9587 1.998481,-5.064 0.09375,-6.9687 l -0.1875,-0.1875 c -0.952365,-0.9524 -2.208258,-1.4239 -3.46875,-1.4063 -1.260492,0.018 -2.551907,0.5207 -3.53125,1.5 l -12.375,12.375 -12.375,-12.375 c -0.979343,-0.9793 -2.2395081,-1.4824 -3.5,-1.5 z"
       id="path4325" />
    <path
       id="path4359"
       d="m 8.09375,1006.9911 c -1.2604919,-0.018 -2.5163847,0.4539 -3.46875,1.4063 l -0.1875,0.1875 c -1.9047307,1.9047 -1.8649358,5.01 0.09375,6.9687 l 12.375,12.375 -12.375,12.375 c -1.9586858,1.9587 -1.9984807,5.064 -0.09375,6.9688 l 0.1875,0.1875 c 1.9047307,1.9047 5.0100642,1.8649 6.96875,-0.094 l 12.375,-12.375 12.375,12.375 c 1.958686,1.9587 5.095269,1.9985 7,0.094 l 0.1875,-0.1875 c 1.904731,-1.9048 1.864936,-5.0101 -0.09375,-6.9688 l -12.375,-12.375 12.375,-12.375 c 1.958686,-1.9587 1.998481,-5.064 0.09375,-6.9687 l -0.1875,-0.1875 c -0.952365,-0.9524 -2.208258,-1.4239 -3.46875,-1.4063 -1.260492,0.018 -2.551907,0.5207 -3.53125,1.5 l -12.375,12.375 -12.375,-12.375 c -0.979343,-0.9793 -2.2395081,-1.4824 -3.5,-1.5 z"
       style="fill:url(#radialGradient2883);fill-opacity:1;stroke:url(#radialGradient2885);stroke-width:1;stroke-linecap:round;stroke-linejoin:round;stroke-miterlimit:4;stroke-opacity:1;stroke-dasharray:none" />
    <path
       style="fill:none;stroke:url(#linearGradient2880);stroke-width:1;stroke-linecap:round;stroke-linejoin:round;stroke-miterlimit:4;stroke-opacity:1;stroke-dasharray:none"
       d="m 8.09375,1006.9911 c -1.2604919,-0.018 -2.5163847,0.4539 -3.46875,1.4063 l -0.1875,0.1875 c -1.9047307,1.9047 -1.8649358,5.01 0.09375,6.9687 l 12.375,12.375 -12.375,12.375 c -1.9586858,1.9587 -1.9984807,5.064 -0.09375,6.9688 l 0.1875,0.1875 c 1.9047307,1.9047 5.0100642,1.8649 6.96875,-0.094 l 12.375,-12.375 12.375,12.375 c 1.958686,1.9587 5.095269,1.9985 7,0.094 l 0.1875,-0.1875 c 1.904731,-1.9048 1.864936,-5.0101 -0.09375,-6.9688 l -12.375,-12.375 12.375,-12.375 c 1.958686,-1.9587 1.998481,-5.064 0.09375,-6.9687 l -0.1875,-0.1875 c -0.952365,-0.9524 -2.208258,-1.4239 -3.46875,-1.4063 -1.260492,0.018 -2.551907,0.5207 -3.53125,1.5 l -12.375,12.375 -12.375,-12.375 c -0.979343,-0.9793 -2.2395081,-1.4824 -3.5,-1.5 z"
       id="path4377" />
    <g
       id="g3006">
      <text
         transform="scale(0.98744441,1.0127152)"
         xml:space="preserve"
         style="font-size:14.03843784px;font-style:normal;font-variant:normal;font-weight:normal;font-stretch:normal;fill:#204a87;fill-opacity:1;stroke:#204a87;stroke-width:2.00549126;stroke-miterlimit:4;stroke-opacity:1;stroke-dasharray:none;font-family:Mishmash BRK;-inkscape-font-specification:'10.15 Saturday Night BRK'"
         x="2.4522471"
         y="1020.385"
         id="text4413"><tspan
           sodipodi:role="line"
           id="tspan4415"
           x="2.4522471"
           y="1020.385"
           style="fill:#204a87;fill-opacity:1;stroke:#204a87;stroke-width:2.00549126;stroke-miterlimit:4;stroke-opacity:1;stroke-dasharray:none">SPAM</tspan></text>
      <text
         transform="scale(0.98744441,1.0127152)"
         id="text4393"
         y="1020.385"
         x="2.4522471"
         style="font-size:14.03843784px;font-style:normal;font-variant:normal;font-weight:normal;font-stretch:normal;fill:url(#linearGradient4431);fill-opacity:1;stroke:none;font-family:Mishmash BRK;-inkscape-font-specification:'10.15 Saturday Night BRK'"
         xml:space="preserve"><tspan
           style="fill:url(#linearGradient4431);fill-opacity:1;stroke:none"
           y="1020.385"
           x="2.4522471"
           id="tspan4395"
           sodipodi:role="line">SPAM</tspan></text>
    </g>
  </g>
</svg>
