<?xml version="1.0" encoding="UTF-8" standalone="no"?>
<!-- Created with Inkscape (http://www.inkscape.org/) -->

<svg
   xmlns:dc="http://purl.org/dc/elements/1.1/"
   xmlns:cc="http://creativecommons.org/ns#"
   xmlns:rdf="http://www.w3.org/1999/02/22-rdf-syntax-ns#"
   xmlns:svg="http://www.w3.org/2000/svg"
   xmlns="http://www.w3.org/2000/svg"
   xmlns:xlink="http://www.w3.org/1999/xlink"
   xmlns:sodipodi="http://sodipodi.sourceforge.net/DTD/sodipodi-0.dtd"
   xmlns:inkscape="http://www.inkscape.org/namespaces/inkscape"
   height="48"
   id="svg11300"
   inkscape:export-filename="/home/jimmac/Desktop/wi-fi.png"
   inkscape:export-xdpi="90.000000"
   inkscape:export-ydpi="90.000000"
   inkscape:output_extension="org.inkscape.output.svg.inkscape"
   inkscape:version="0.48.3.1 r9886"
   sodipodi:docname="applications-engineering.svg"
   sodipodi:version="0.32"
   style="display:inline;enable-background:new"
   version="1.0"
   width="48">
  <title
     id="title8836">Optical Drive</title>
  <metadata
     id="metadata154">
    <rdf:RDF>
      <cc:Work
         rdf:about="">
        <dc:format>image/svg+xml</dc:format>
        <dc:type
           rdf:resource="http://purl.org/dc/dcmitype/StillImage" />
        <dc:title>Optical Drive</dc:title>
        <dc:creator>
          <cc:Agent>
            <dc:title />
          </cc:Agent>
        </dc:creator>
        <dc:contributor>
          <cc:Agent>
            <dc:title />
          </cc:Agent>
        </dc:contributor>
        <dc:source />
        <cc:license
           rdf:resource="" />
        <dc:subject>
          <rdf:Bag />
        </dc:subject>
      </cc:Work>
    </rdf:RDF>
  </metadata>
  <sodipodi:namedview
     bordercolor="#666666"
     borderopacity="0.25490196"
     fill="#f57900"
     gridtolerance="12"
     guidetolerance="13"
     height="300px"
     id="base"
     inkscape:current-layer="layer2"
     inkscape:cx="24"
     inkscape:cy="24"
     inkscape:document-units="px"
     inkscape:grid-bbox="true"
     inkscape:guide-bbox="true"
     inkscape:pageopacity="0.0"
     inkscape:pageshadow="2"
     inkscape:showpageshadow="false"
     inkscape:snap-bbox="true"
     inkscape:snap-nodes="true"
     inkscape:window-height="876"
     inkscape:window-width="968"
     inkscape:window-x="132"
     inkscape:window-y="24"
     inkscape:zoom="12.4375"
     objecttolerance="7"
     pagecolor="#ffffff"
     showgrid="false"
     showguides="true"
     stroke="#ef2929"
     width="400px"
     fit-margin-top="0"
     fit-margin-left="0"
     fit-margin-right="0"
     fit-margin-bottom="0"
     inkscape:window-maximized="0">
    <inkscape:grid
       empspacing="2"
       enabled="true"
       id="grid5883"
       spacingx="0.5px"
       spacingy="0.5px"
       type="xygrid"
       visible="true"
       snapvisiblegridlinesonly="true"
       originx="-295.52082px"
       originy="-202px" />
  </sodipodi:namedview>
  <defs
     id="defs3">
    <linearGradient
       id="linearGradient7002"
       inkscape:collect="always">
      <stop
         id="stop7004"
         offset="0"
         style="stop-color:#eeeeec;stop-opacity:1" />
      <stop
         id="stop7006"
         offset="1"
         style="stop-color:#babdb6;stop-opacity:1" />
    </linearGradient>
    <linearGradient
       id="linearGradient6992">
      <stop
         id="stop6994"
         offset="0"
         style="stop-color:#ffffff;stop-opacity:0.15384616;" />
      <stop
         id="stop7000"
         offset="0.51020408"
         style="stop-color:#ffffff;stop-opacity:1;" />
      <stop
         id="stop6996"
         offset="1"
         style="stop-color:#ffffff;stop-opacity:0;" />
    </linearGradient>
    <linearGradient
       id="linearGradient7007"
       inkscape:collect="always">
      <stop
         id="stop7009"
         offset="0"
         style="stop-color:#c4a000;stop-opacity:1;" />
      <stop
         id="stop7011"
         offset="1"
         style="stop-color:#c4a000;stop-opacity:0;" />
    </linearGradient>
    <linearGradient
       id="linearGradient7447"
       inkscape:collect="always">
      <stop
         id="stop7449"
         offset="0"
         style="stop-color:#ffffff;stop-opacity:1;" />
      <stop
         id="stop7451"
         offset="1"
         style="stop-color:#ffffff;stop-opacity:0;" />
    </linearGradient>
    <linearGradient
       id="linearGradient7233"
       inkscape:collect="always">
      <stop
         id="stop7235"
         offset="0"
         style="stop-color:#000000;stop-opacity:1;" />
      <stop
         id="stop7237"
         offset="1"
         style="stop-color:#000000;stop-opacity:0;" />
    </linearGradient>
    <linearGradient
       id="linearGradient7223"
       inkscape:collect="always">
      <stop
         id="stop7225"
         offset="0"
         style="stop-color:#fce94f;stop-opacity:0.78431374" />
      <stop
         id="stop7227"
         offset="1"
         style="stop-color:#edd400;stop-opacity:0.78431374" />
    </linearGradient>
    <linearGradient
       id="linearGradient7215"
       inkscape:collect="always">
      <stop
         id="stop7217"
         offset="0"
         style="stop-color:#ffffff;stop-opacity:1;" />
      <stop
         id="stop7219"
         offset="1"
         style="stop-color:#ffffff;stop-opacity:0;" />
    </linearGradient>
    <linearGradient
       id="linearGradient7207"
       inkscape:collect="always">
      <stop
         id="stop7209"
         offset="0"
         style="stop-color:#ffffff;stop-opacity:1;" />
      <stop
         id="stop7211"
         offset="1"
         style="stop-color:#ffffff;stop-opacity:0;" />
    </linearGradient>
    <linearGradient
       id="linearGradient7010">
      <stop
         id="stop7012"
         offset="0"
         style="stop-color:#888a85;stop-opacity:1" />
      <stop
         id="stop7014"
         offset="1"
         style="stop-color:#babdb6;stop-opacity:1;" />
    </linearGradient>
    <linearGradient
       id="linearGradient6979"
       inkscape:collect="always">
      <stop
         id="stop6981"
         offset="0"
         style="stop-color:#ffffff;stop-opacity:1;" />
      <stop
         id="stop6983"
         offset="1"
         style="stop-color:#ffffff;stop-opacity:0;" />
    </linearGradient>
    <linearGradient
       id="linearGradient6969"
       inkscape:collect="always">
      <stop
         id="stop6973"
         offset="0"
         style="stop-color:#000000;stop-opacity:1;" />
      <stop
         id="stop6975"
         offset="1"
         style="stop-color:#000000;stop-opacity:0;" />
    </linearGradient>
    <linearGradient
       id="linearGradient6967"
       inkscape:collect="always">
      <stop
         id="stop6969"
         offset="0"
         style="stop-color:#ffffff;stop-opacity:1;" />
      <stop
         id="stop6971"
         offset="1"
         style="stop-color:#ffffff;stop-opacity:0;" />
    </linearGradient>
    <linearGradient
       id="linearGradient7065">
      <stop
         id="stop7067"
         offset="0"
         style="stop-color:#888a85;stop-opacity:1;" />
      <stop
         id="stop7073"
         offset="0.70408165"
         style="stop-color:#cfd0ce;stop-opacity:1;" />
      <stop
         id="stop7069"
         offset="1"
         style="stop-color:#888a85;stop-opacity:1;" />
    </linearGradient>
    <linearGradient
       id="linearGradient7033"
       inkscape:collect="always">
      <stop
         id="stop7035"
         offset="0"
         style="stop-color:#000000;stop-opacity:1;" />
      <stop
         id="stop7037"
         offset="1"
         style="stop-color:#000000;stop-opacity:0;" />
    </linearGradient>
    <linearGradient
       id="linearGradient6978"
       inkscape:collect="always">
      <stop
         id="stop6980"
         offset="0"
         style="stop-color:#babdb6;stop-opacity:1" />
      <stop
         id="stop6982"
         offset="1"
         style="stop-color:#555753;stop-opacity:0" />
    </linearGradient>
    <linearGradient
       id="linearGradient6970"
       inkscape:collect="always">
      <stop
         id="stop6972"
         offset="0"
         style="stop-color:#ffffff;stop-opacity:1" />
      <stop
         id="stop6974"
         offset="1"
         style="stop-color:#eeeeec;stop-opacity:0;" />
    </linearGradient>
    <linearGradient
       id="linearGradient6939">
      <stop
         id="stop6941"
         offset="0"
         style="stop-color:#babdb6;stop-opacity:1;" />
      <stop
         id="stop7051"
         offset="0.24743238"
         style="stop-color:#ededed;stop-opacity:1;" />
      <stop
         id="stop7053"
         offset="0.53371018"
         style="stop-color:#b6b9b1;stop-opacity:1;" />
      <stop
         id="stop7049"
         offset="0.83191627"
         style="stop-color:#e9eae8;stop-opacity:1;" />
      <stop
         id="stop6943"
         offset="1"
         style="stop-color:#b5b9b2;stop-opacity:1;" />
    </linearGradient>
    <radialGradient
       cx="28.637825"
       cy="43.934135"
       fx="28.637825"
       fy="43.934135"
       gradientTransform="matrix(1,0,0,0.2982456,0,30.830973)"
       gradientUnits="userSpaceOnUse"
       id="radialGradient6977"
       inkscape:collect="always"
       r="10.076272"
       xlink:href="#linearGradient6969" />
    <linearGradient
       gradientTransform="translate(3,0)"
       gradientUnits="userSpaceOnUse"
       id="linearGradient7133"
       inkscape:collect="always"
       x1="13.5"
       x2="38.758255"
       xlink:href="#linearGradient7010"
       y1="-2.3713188"
       y2="51.564079" />
    <linearGradient
       gradientTransform="translate(13,0)"
       gradientUnits="userSpaceOnUse"
       id="linearGradient7139"
       inkscape:collect="always"
       x1="3.7123106"
       x2="3.7123106"
       xlink:href="#linearGradient6978"
       y1="3.5268352"
       y2="5.0105686" />
    <linearGradient
       gradientTransform="translate(3,0)"
       gradientUnits="userSpaceOnUse"
       id="linearGradient7141"
       inkscape:collect="always"
       x1="23.125"
       x2="29.625"
       xlink:href="#linearGradient6979"
       y1="1.4999999"
       y2="78.125" />
    <linearGradient
       gradientTransform="translate(16,2)"
       gradientUnits="userSpaceOnUse"
       id="linearGradient7143"
       inkscape:collect="always"
       x1="9.53125"
       x2="11.467819"
       xlink:href="#linearGradient6967"
       y1="17.5625"
       y2="17.5625" />
    <linearGradient
       gradientTransform="matrix(0.5,0,0,1,27.5,1)"
       gradientUnits="userSpaceOnUse"
       id="linearGradient7145"
       inkscape:collect="always"
       x1="12.6875"
       x2="12.6875"
       xlink:href="#linearGradient7033"
       y1="17.550121"
       y2="21.500893" />
    <linearGradient
       gradientTransform="matrix(0.5,0,0,1,21.5,1)"
       gradientUnits="userSpaceOnUse"
       id="linearGradient7147"
       inkscape:collect="always"
       x1="12.6875"
       x2="12.6875"
       xlink:href="#linearGradient7033"
       y1="17.550121"
       y2="21.500893" />
    <linearGradient
       gradientTransform="translate(18,0)"
       gradientUnits="userSpaceOnUse"
       id="linearGradient7149"
       inkscape:collect="always"
       x1="20.461903"
       x2="20.461903"
       xlink:href="#linearGradient7065"
       y1="15.32668"
       y2="11.746678" />
    <linearGradient
       gradientTransform="translate(13,0)"
       gradientUnits="userSpaceOnUse"
       id="linearGradient7151"
       inkscape:collect="always"
       x1="3.800699"
       x2="3.800699"
       xlink:href="#linearGradient6970"
       y1="9.5814371"
       y2="7.9975319" />
    <linearGradient
       gradientTransform="translate(3,0)"
       gradientUnits="userSpaceOnUse"
       id="linearGradient7153"
       inkscape:collect="always"
       x1="23.125"
       x2="29.625"
       xlink:href="#linearGradient6979"
       y1="1.4999999"
       y2="78.125" />
    <linearGradient
       gradientTransform="translate(17,0)"
       gradientUnits="userSpaceOnUse"
       id="linearGradient7155"
       inkscape:collect="always"
       x1="-5.837441"
       x2="22"
       xlink:href="#linearGradient6939"
       y1="8.048214"
       y2="33.136932" />
    <radialGradient
       cx="28.637825"
       cy="43.934135"
       fx="28.637825"
       fy="43.934135"
       gradientTransform="matrix(1,0,0,0.2982456,0,30.830973)"
       gradientUnits="userSpaceOnUse"
       id="radialGradient7457"
       inkscape:collect="always"
       r="10.076272"
       xlink:href="#linearGradient6969" />
    <linearGradient
       gradientTransform="matrix(0,-1,1,0,-22.968749,49.03125)"
       gradientUnits="userSpaceOnUse"
       id="linearGradient7023"
       inkscape:collect="always"
       x1="15.75"
       x2="4.5266504"
       xlink:href="#linearGradient7223"
       y1="37"
       y2="-0.52360207" />
    <linearGradient
       gradientTransform="matrix(0,-1,1,0,-22.968749,49.03125)"
       gradientUnits="userSpaceOnUse"
       id="linearGradient7025"
       inkscape:collect="always"
       x1="24.375"
       x2="-6.59375"
       xlink:href="#linearGradient7207"
       y1="26"
       y2="26" />
    <radialGradient
       cx="3.031251"
       cy="40.624996"
       fx="3.031251"
       fy="40.624996"
       gradientTransform="matrix(1.450655,0,0,1.2623489,-1.3660485,-18.001669)"
       gradientUnits="userSpaceOnUse"
       id="radialGradient7027"
       inkscape:collect="always"
       r="13"
       xlink:href="#linearGradient7007" />
    <linearGradient
       gradientTransform="matrix(0,-1,1,0,-22.968749,49.03125)"
       gradientUnits="userSpaceOnUse"
       id="linearGradient7029"
       inkscape:collect="always"
       x1="21.625"
       x2="5.2409787"
       xlink:href="#linearGradient7215"
       y1="19.875"
       y2="19.875" />
    <linearGradient
       gradientTransform="matrix(0,-1,1,0,-22.968749,49.03125)"
       gradientUnits="userSpaceOnUse"
       id="linearGradient7031"
       inkscape:collect="always"
       x1="11.22532"
       x2="8.9998951"
       xlink:href="#linearGradient7233"
       y1="26.521631"
       y2="26.521631" />
    <linearGradient
       gradientTransform="matrix(0,-1,1,0,-22.968749,49.03125)"
       gradientUnits="userSpaceOnUse"
       id="linearGradient7034"
       inkscape:collect="always"
       x1="14.625"
       x2="20.625"
       xlink:href="#linearGradient7447"
       y1="28.125"
       y2="10.625" />
    <radialGradient
       cx="28.637825"
       cy="43.934135"
       fx="28.637825"
       fy="43.934135"
       gradientTransform="matrix(1,0,0,0.2982456,0,30.830973)"
       gradientUnits="userSpaceOnUse"
       id="radialGradient7001"
       inkscape:collect="always"
       r="10.076272"
       xlink:href="#linearGradient6969" />
    <linearGradient
       gradientUnits="userSpaceOnUse"
       id="linearGradient6998"
       inkscape:collect="always"
       x1="30"
       x2="31"
       xlink:href="#linearGradient6992"
       y1="8.375"
       y2="39" />
    <radialGradient
       cx="24.5"
       cy="14"
       fx="24.5"
       fy="14"
       gradientTransform="matrix(1,0,0,0.6666667,0,4.6666667)"
       gradientUnits="userSpaceOnUse"
       id="radialGradient7008"
       inkscape:collect="always"
       r="10.5"
       xlink:href="#linearGradient7002" />
    <linearGradient
       id="linearGradient7358"
       inkscape:collect="always">
      <stop
         id="stop7360"
         offset="0"
         style="stop-color:#000000;stop-opacity:1;" />
      <stop
         id="stop7362"
         offset="1"
         style="stop-color:#000000;stop-opacity:0;" />
    </linearGradient>
    <linearGradient
       id="linearGradient7323"
       inkscape:collect="always">
      <stop
         id="stop7325"
         offset="0"
         style="stop-color:#ffffff;stop-opacity:1;" />
      <stop
         id="stop7327"
         offset="1"
         style="stop-color:#ffffff;stop-opacity:0;" />
    </linearGradient>
    <linearGradient
       id="linearGradient6958"
       inkscape:collect="always">
      <stop
         id="stop6960"
         offset="0"
         style="stop-color:#ffffff;stop-opacity:1" />
      <stop
         id="stop6962"
         offset="1"
         style="stop-color:#ffffff;stop-opacity:0" />
    </linearGradient>
    <linearGradient
       id="linearGradient6955"
       inkscape:collect="always">
      <stop
         id="stop6957"
         offset="0"
         style="stop-color:#ffffff;stop-opacity:1;" />
      <stop
         id="stop6959"
         offset="1"
         style="stop-color:#ffffff;stop-opacity:0;" />
    </linearGradient>
    <linearGradient
       gradientTransform="translate(10,0)"
       gradientUnits="userSpaceOnUse"
       id="linearGradient6945"
       inkscape:collect="always"
       x1="6.3601508"
       x2="18"
       xlink:href="#linearGradient6939"
       y1="2.5681367"
       y2="41.975765" />
    <linearGradient
       gradientTransform="translate(10,0)"
       gradientUnits="userSpaceOnUse"
       id="linearGradient6961"
       inkscape:collect="always"
       x1="9.015625"
       x2="22.226398"
       xlink:href="#linearGradient6955"
       y1="8.1772938"
       y2="34.389534" />
    <linearGradient
       gradientTransform="translate(10,-1)"
       gradientUnits="userSpaceOnUse"
       id="linearGradient7039"
       inkscape:collect="always"
       x1="12.6875"
       x2="12.6875"
       xlink:href="#linearGradient6958"
       y1="17.550121"
       y2="23.321859" />
    <linearGradient
       gradientTransform="matrix(0.5,0,0,1,14.5,-4)"
       gradientUnits="userSpaceOnUse"
       id="linearGradient7043"
       inkscape:collect="always"
       x1="12.6875"
       x2="12.6875"
       xlink:href="#linearGradient7033"
       y1="17.550121"
       y2="21.500893" />
    <linearGradient
       gradientTransform="matrix(0.5,0,0,1,18.5,-4)"
       gradientUnits="userSpaceOnUse"
       id="linearGradient7047"
       inkscape:collect="always"
       x1="12.6875"
       x2="12.6875"
       xlink:href="#linearGradient7033"
       y1="17.550121"
       y2="21.500893" />
    <linearGradient
       gradientTransform="matrix(1,0,0,0.75,7,2.875)"
       gradientUnits="userSpaceOnUse"
       id="linearGradient7071"
       inkscape:collect="always"
       x1="20.461903"
       x2="20.461903"
       xlink:href="#linearGradient7065"
       y1="15.32668"
       y2="11.746678" />
    <linearGradient
       gradientTransform="matrix(0,-0.630369,0.6573241,0,-23.089941,30.858135)"
       gradientUnits="userSpaceOnUse"
       id="linearGradient7338"
       inkscape:collect="always"
       x1="15.75"
       x2="4.5266504"
       xlink:href="#linearGradient7223"
       y1="37"
       y2="-0.52360207" />
    <radialGradient
       cx="3.031251"
       cy="40.624996"
       fx="3.031251"
       fy="40.624996"
       gradientTransform="matrix(0.9535505,0,0,0.7957456,-8.8899656,-11.39734)"
       gradientUnits="userSpaceOnUse"
       id="radialGradient7340"
       inkscape:collect="always"
       r="13"
       xlink:href="#linearGradient7007" />
    <linearGradient
       gradientTransform="matrix(0,-0.7262133,0.6852294,0,-23.815932,32.577613)"
       gradientUnits="userSpaceOnUse"
       id="linearGradient7342"
       inkscape:collect="always"
       x1="11.297456"
       x2="28.65008"
       xlink:href="#linearGradient7215"
       y1="26.989407"
       y2="26.806986" />
    <linearGradient
       gradientTransform="matrix(0,-1.0000003,1,0,-27.999999,35.000002)"
       gradientUnits="userSpaceOnUse"
       id="linearGradient7344"
       inkscape:collect="always"
       x1="11.22532"
       x2="8.9998951"
       xlink:href="#linearGradient7233"
       y1="26.521631"
       y2="26.521631" />
    <linearGradient
       gradientUnits="userSpaceOnUse"
       id="linearGradient7346"
       inkscape:collect="always"
       x1="-10.5625"
       x2="-9.875"
       xlink:href="#linearGradient7323"
       y1="17.5625"
       y2="25.5625" />
    <radialGradient
       cx="23.788582"
       cy="31"
       fx="23.788582"
       fy="31"
       gradientTransform="matrix(1,0,0,0.263951,0,22.81752)"
       gradientUnits="userSpaceOnUse"
       id="radialGradient7364"
       inkscape:collect="always"
       r="3.7885823"
       xlink:href="#linearGradient7358" />
    <radialGradient
       cx="23.788582"
       cy="31"
       fx="23.788582"
       fy="31"
       gradientTransform="matrix(1,0,0,0.263951,0,22.81752)"
       gradientUnits="userSpaceOnUse"
       id="radialGradient7368"
       inkscape:collect="always"
       r="3.7885823"
       xlink:href="#linearGradient7358" />
    <linearGradient
       id="linearGradient6931">
      <stop
         id="stop6933"
         offset="0"
         style="stop-color:#a1a29e;stop-opacity:1;" />
      <stop
         id="stop6935"
         offset="1"
         style="stop-color:#888a85;stop-opacity:0;" />
    </linearGradient>
    <linearGradient
       gradientTransform="translate(1,0)"
       gradientUnits="userSpaceOnUse"
       id="linearGradient6937"
       inkscape:collect="always"
       x1="15.5625"
       x2="15.5625"
       xlink:href="#linearGradient6931"
       y1="18.872503"
       y2="22.003469" />
    <linearGradient
       gradientTransform="translate(-1,-2)"
       gradientUnits="userSpaceOnUse"
       id="linearGradient6976"
       inkscape:collect="always"
       x1="3.800699"
       x2="3.800699"
       xlink:href="#linearGradient6970"
       y1="9.5814371"
       y2="7.9975319" />
    <linearGradient
       gradientTransform="translate(-1,0)"
       gradientUnits="userSpaceOnUse"
       id="linearGradient6984"
       inkscape:collect="always"
       x1="3.7123106"
       x2="3.7123106"
       xlink:href="#linearGradient6978"
       y1="3.5268352"
       y2="5.0105686" />
    <linearGradient
       gradientTransform="translate(0,-1)"
       gradientUnits="userSpaceOnUse"
       id="linearGradient6973"
       inkscape:collect="always"
       x1="9.53125"
       x2="11.157452"
       xlink:href="#linearGradient6967"
       y1="17.5625"
       y2="17.5625" />
  </defs>
  <g
     id="layer6"
     inkscape:groupmode="layer"
     inkscape:label="baseplate"
     style="display:none"
     transform="translate(-295.52082,-50)">
    <rect
       height="48"
       id="rect6284"
       inkscape:label="48x48"
       style="fill:#eeeeec;fill-opacity:1;fill-rule:nonzero;stroke:none;stroke-width:2;marker:none;visibility:visible;display:inline;overflow:visible;enable-background:accumulate"
       width="48"
       x="296"
       y="50" />
    <rect
       height="32"
       id="rect6592"
       inkscape:label="32x32"
       style="fill:#eeeeec;fill-opacity:1;fill-rule:nonzero;stroke:none;stroke-width:2;marker:none;visibility:visible;display:inline;overflow:visible;enable-background:accumulate"
       width="32"
       x="303"
       y="126" />
    <rect
       height="22"
       id="rect6749"
       inkscape:label="22x22"
       style="fill:#eeeeec;fill-opacity:1;fill-rule:nonzero;stroke:none;stroke-width:2;marker:none;visibility:visible;display:inline;overflow:visible;enable-background:accumulate"
       width="22"
       x="303"
       y="177" />
    <rect
       height="16"
       id="rect6833"
       inkscape:label="16x16"
       style="fill:#eeeeec;fill-opacity:1;fill-rule:nonzero;stroke:none;stroke-width:2;marker:none;visibility:visible;display:inline;overflow:visible;enable-background:accumulate"
       width="16"
       x="303"
       y="219" />
    <text
       id="context"
       inkscape:label="context"
       style="font-size:18.30070686px;font-style:normal;font-weight:normal;fill:#000000;fill-opacity:1;stroke:none;display:inline;enable-background:new;font-family:Bitstream Vera Sans"
       x="20.970737"
       xml:space="preserve"
       y="21.513618"><tspan
         id="tspan2716"
         sodipodi:role="line"
         x="20.970737"
         y="21.513618">categories</tspan></text>
    <text
       id="icon-name"
       inkscape:label="icon-name"
       sodipodi:linespacing="125%"
       style="font-size:18.30070686px;font-style:normal;font-variant:normal;font-weight:bold;font-stretch:normal;text-align:start;line-height:125%;writing-mode:lr-tb;text-anchor:start;fill:#000000;fill-opacity:1;stroke:none;display:inline;enable-background:new;font-family:Droid Sans;-inkscape-font-specification:Droid Sans Bold"
       x="191.97073"
       xml:space="preserve"
       y="21.513618"><tspan
         id="tspan3023"
         sodipodi:role="line"
         x="191.97073"
         y="21.513618">applications-engineering</tspan></text>
  </g>
  <g
     id="layer2"
     inkscape:groupmode="layer"
     inkscape:label="small sizes"
     style="display:inline"
     transform="translate(-295.52082,-50)">
    <g
       id="g48"
       style="display:inline;enable-background:new"
       transform="translate(296.82754,49.999999)">
      <path
         d="m 34.5,6.5 5,0 c 0,-1.309637 -3.222373,-2.6533694 -5,-3 l 0,3 z"
         id="path5940"
         sodipodi:nodetypes="cccc"
         style="fill:#babdb6;fill-rule:evenodd;stroke:#888a85;stroke-width:1px;stroke-linecap:butt;stroke-linejoin:miter;stroke-opacity:1"
         inkscape:connector-curvature="0" />
      <rect
         height="2"
         id="rect6988"
         rx="0"
         ry="0"
         style="fill:#eeeeec;fill-opacity:1;fill-rule:evenodd;stroke:#babdb6;stroke-width:0.99999994;stroke-linecap:round;stroke-linejoin:miter;stroke-miterlimit:10;stroke-opacity:1;stroke-dasharray:none"
         width="4"
         x="33.5"
         y="12.5" />
      <path
         d="m 38.714097,43.934135 c 0,1.659729 -4.511301,3.005204 -10.076272,3.005204 -5.564971,0 -10.076272,-1.345475 -10.076272,-3.005204 0,-1.659728 4.511301,-3.005203 10.076272,-3.005203 5.564971,0 10.076272,1.345475 10.076272,3.005203 z"
         id="path7455"
         sodipodi:cx="28.637825"
         sodipodi:cy="43.934135"
         sodipodi:rx="10.076272"
         sodipodi:ry="3.0052037"
         sodipodi:type="arc"
         style="opacity:0.1;fill:url(#radialGradient7457);fill-opacity:1;fill-rule:evenodd;stroke:none"
         transform="matrix(2.2997063,0,0,0.8336219,-43.165305,7.3703375)" />
      <g
         id="g7015"
         transform="translate(20,3)">
        <path
           d="m -14.46875,40.53125 35.000001,0 0,-5 -4,0 c 0.0062,-0.166339 0,-0.394238 0,-0.5625 0,-7.452 -6.048001,-13.500001 -13.500001,-13.500001 -7.452,0 -13.5,6.048001 -13.500001,13.500001 10e-7,0.168262 0.02504,0.396161 0.03125,0.5625 l -4.03125,0 -1e-6,5 z m 9,-5.5625 c 0,-4.692 3.808,-8.500001 8.5,-8.500001 4.692001,1e-6 8.500001,3.808001 8.500001,8.500001 0,0.167099 0.0096,0.397687 0,0.5625 l -17,0 c -0.00963,-0.164813 -1e-6,-0.395401 -1e-6,-0.5625 z"
           id="rect7157"
           sodipodi:nodetypes="ccccsssccccssccc"
           style="fill:url(#linearGradient7023);fill-opacity:1;fill-rule:evenodd;stroke:#c4a000;stroke-width:0.99999994;stroke-linecap:round;stroke-linejoin:round;stroke-miterlimit:4;stroke-opacity:1;stroke-dasharray:none"
           inkscape:connector-curvature="0" />
        <path
           d="m -13.468749,39.53125 33,0 0,-3 -3,0 C 16.260539,36.531354 16.001349,36.42171 15.812894,36.227366 15.624439,36.033021 15.522819,35.770581 15.531251,35.5 c 0.004,-0.107473 0,-0.338384 0,-0.53125 0,-6.910937 -5.589063,-12.5 -12.5,-12.5 -6.910936,1e-6 -12.499999,5.589063 -12.5,12.5 0,0.06907 0.022571,0.298806 0.03125,0.53125 0.00843,0.270581 -0.093188,0.533021 -0.281643,0.727366 -0.188455,0.194344 -0.447645,0.303988 -0.718357,0.303884 l -3.03125,0 0,3 z"
           id="path7176"
           sodipodi:nodetypes="ccccsssssssccc"
           style="fill:none;stroke:url(#linearGradient7025);stroke-width:1;stroke-linecap:round;stroke-linejoin:miter;stroke-miterlimit:4;stroke-opacity:1"
           inkscape:connector-curvature="0" />
        <path
           d="m -9.968749,32.875 1.40625,0.40625 c 0.076241,-0.328066 0.178664,-0.651544 0.28125,-0.96875 l -1.4375,-0.40625 -0.25,0.96875 z m 1.21875,-3.4375 1.34375,0.8125 c 0.156459,-0.285004 0.321705,-0.573425 0.5,-0.84375 l -1.375,-0.84375 -0.46875,0.875 z m 2,-3 1.21875,1.28125 c 0.231076,-0.241677 0.468432,-0.46588 0.71875,-0.6875 l -1.25,-1.3125 -0.6875,0.71875 z m 2.71875,-2.34375 0.90625,1.6875 c 0.271456,-0.166107 0.558722,-0.324429 0.84375,-0.46875 l -0.9375,-1.71875 -0.8125,0.5 z m 3.15625,-1.53125 0.5,1.96875 c 0.300767,-0.09073 0.596123,-0.151902 0.90625,-0.21875 l -0.5,-2 -0.90625,0.25 z m 3.4375,1.5 c 0.156311,-0.0062 0.31098,-0.03125 0.46875,-0.03125 0.15777,0 0.312439,0.02509 0.46875,0.03125 l 0,-2.09375 -0.9375,0 0,2.09375 z m 2.96875,0.25 c 0.310127,0.06685 0.605483,0.128022 0.90625,0.21875 l 0.5,-1.96875 -0.90625,-0.25 -0.5,2 z m 2.8125,1 c 0.285028,0.144321 0.572294,0.302643 0.84375,0.46875 l 0.90625,-1.6875 -0.8125,-0.5 -0.9375,1.71875 z m 2.53125,1.71875 c 0.250318,0.22162 0.487674,0.445823 0.71875,0.6875 l 1.21875,-1.28125 -0.6875,-0.71875 -1.25,1.3125 z m 2.09375,2.375 c 0.178295,0.270325 0.343541,0.558746 0.5,0.84375 l 1.34375,-0.8125 -0.46875,-0.875 -1.375,0.84375 z m 1.375,2.90625 c 0.102586,0.317206 0.205009,0.640684 0.28125,0.96875 l 1.40625,-0.40625 -0.25,-0.96875 -1.4375,0.40625 z"
           id="path7243"
           style="fill:url(#radialGradient7027);fill-opacity:1;fill-rule:evenodd;stroke:none"
           inkscape:connector-curvature="0" />
        <path
           d="m -6.468749,35.6875 c -0.00147,-0.03123 -0.00147,-0.06252 0,-0.09375 -0.01506,-0.257779 0,-0.496317 0,-0.625 1e-6,-5.233063 4.266937,-9.5 9.5,-9.5 5.233064,2e-6 9.5,4.266937 9.5,9.5 0,0.128679 0.01506,0.367211 0,0.625 -0.0331,0.527714 -0.47125,0.938484 -1,0.9375 l -17,0 c -0.496592,0.0061 -0.922397,-0.353222 -1,-0.84375 l 0,0 z"
           id="path7194"
           sodipodi:nodetypes="cssssscccc"
           style="fill:none;stroke:url(#linearGradient7029);stroke-width:1;stroke-linecap:round;stroke-linejoin:miter;stroke-miterlimit:4;stroke-opacity:1"
           inkscape:connector-curvature="0" />
        <path
           d="m -10.968749,40.03125 1,0 0,-2 -1,0 0,2 z m 2,0 1,0 0,-3 -1,0 0,3 z m 2,0 1,0 0,-2 -1,0 0,2 z m 2,0 1,0 0,-3 -1,0 0,3 z m 2,0 1,0 0,-2 -1,0 0,2 z m 2,0 1,0 0,-3 -1,0 0,3 z m 2,0 1,0 0,-2 -1,0 0,2 z m 2,0 1,0 0,-3 -1,0 0,3 z m 2,0 1,0 0,-2 -1,0 0,2 z m 2,0 1,0 0,-3 -1,0 0,3 z m 2,0 1,0 0,-2 -1,0 0,2 z m 2,0 1,0 0,-3 -1,0 0,3 z m 2,0 1,0 0,-2 -1,0 0,2 z m 2,0 1,0 0,-3 -1,0 0,3 z m 2,0 1,0 0,-2 -1,0 0,2 z"
           id="path7231"
           sodipodi:nodetypes="ccccccccccccccccccccccccccccccccccccccccccccccccccccccccccccccccccccccccccc"
           style="opacity:0.2;fill:url(#linearGradient7031);fill-opacity:1;fill-rule:evenodd;stroke:none"
           inkscape:connector-curvature="0" />
        <path
           d="m -13.968749,40.03125 14.5625,0 c -0.219291,-1.39782 0.165958,-2.720321 0.875,-4 l -6.9375,0 c -0.243316,0.0043 -0.454389,-0.167209 -0.5,-0.40625 -0.0013,-0.02081 -0.0013,-0.04169 0,-0.0625 -0.012345,-0.211296 0,-0.445859 0,-0.59375 1e-6,-4.962531 4.037469,-9 9,-9 1.721138,1e-6 3.318759,0.502275 4.6875,1.34375 0.591743,-1.508961 0.579075,-3.055862 -0.625,-4.6875 -1.276327,-0.4186 -2.645911,-0.65625 -4.0625,-0.65625 -7.181468,1e-6 -12.999999,5.818531 -13,13 1e-6,0.118663 0.023805,0.331858 0.03125,0.53125 0.00862,0.137931 -0.030283,0.274363 -0.125,0.375 -0.09472,0.100637 -0.2368,0.156505 -0.375,0.15625 l -3.53125,0 0,4 z"
           id="path7441"
           style="opacity:0.66044778;fill:url(#linearGradient7034);fill-opacity:1;fill-rule:evenodd;stroke:none"
           inkscape:connector-curvature="0" />
      </g>
      <path
         d="m 28.5,25.625 0,5.84375 c 1.850354,1.55962 3.03125,3.89243 3.03125,6.5 -1e-6,0.167099 0.0096,0.397687 0,0.5625 l -3.03125,0 0,3.96875 2,0 0,1.03125 2.0625,0 0,-1.03125 1.9375,0 0,-11.625 c -1.424464,-2.294707 -3.510931,-4.144223 -6,-5.25 z"
         id="rect7003"
         style="opacity:0.1;fill:#000000;fill-opacity:1;fill-rule:evenodd;stroke:#000000;stroke-width:1;stroke-linecap:round;stroke-linejoin:miter;stroke-miterlimit:4;stroke-opacity:1;stroke-dasharray:none"
         inkscape:connector-curvature="0" />
      <path
         d="m 38.714097,43.934135 c 0,1.659729 -4.511301,3.005204 -10.076272,3.005204 -5.564971,0 -10.076272,-1.345475 -10.076272,-3.005204 0,-1.659728 4.511301,-3.005203 10.076272,-3.005203 5.564971,0 10.076272,1.345475 10.076272,3.005203 z"
         id="path6959"
         sodipodi:cx="28.637825"
         sodipodi:cy="43.934135"
         sodipodi:rx="10.076272"
         sodipodi:ry="3.0052037"
         sodipodi:type="arc"
         style="opacity:0.07000002;fill:url(#radialGradient6977);fill-opacity:1;fill-rule:evenodd;stroke:none"
         transform="matrix(1.4561403,0,0,0.6672439,-12.007411,16.680014)" />
      <path
         d="m 38.714097,43.934135 c 0,1.659729 -4.511301,3.005204 -10.076272,3.005204 -5.564971,0 -10.076272,-1.345475 -10.076272,-3.005204 0,-1.659728 4.511301,-3.005203 10.076272,-3.005203 5.564971,0 10.076272,1.345475 10.076272,3.005203 z"
         id="path6999"
         sodipodi:cx="28.637825"
         sodipodi:cy="43.934135"
         sodipodi:rx="10.076272"
         sodipodi:ry="3.0052037"
         sodipodi:type="arc"
         style="opacity:0.20641785;fill:url(#radialGradient7001);fill-opacity:1;fill-rule:evenodd;stroke:none"
         transform="matrix(0.4298246,0,0,0.4907733,18.091146,24.963427)" />
      <rect
         height="6"
         id="rect5983"
         style="fill:#d3d7cf;fill-opacity:1;fill-rule:evenodd;stroke:#888a85;stroke-width:1;stroke-linecap:round;stroke-linejoin:round;stroke-miterlimit:4;stroke-opacity:1;stroke-dasharray:none"
         width="2.0580583"
         x="29.5"
         y="40.5" />
      <path
         d="m 33.5,0.5 -7,0 C 24.465147,0.5 15.472272,2.5277282 15.472272,2.5277282 14.60347,3.0293312 14.5,3.9407971 14.5,5.5 l 11,0 c 0,-1.2057618 0.771356,-1 2,-1 l 0,37 6,0 0,-35.96875 c 2.257372,0 6,-1.4980165 6,-3.03125 l -6,0 0,-2 z"
         id="path5931"
         sodipodi:nodetypes="cccccccccccc"
         style="fill:url(#linearGradient7155);fill-opacity:1;fill-rule:evenodd;stroke:url(#linearGradient7133);stroke-width:1px;stroke-linecap:butt;stroke-linejoin:miter;stroke-opacity:1"
         inkscape:connector-curvature="0" />
      <path
         d="m 28,8 0,1 3,0 0,-1 -3,0 z m 0,2 0,1 2,0 0,-1 -2,0 z m 0,2 0,1 3,0 0,-1 -3,0 z m 0,2 0,1 2,0 0,-1 -2,0 z m 0,2 0,1 3,0 0,-1 -3,0 z m 0,2 0,1 2,0 0,-1 -2,0 z m 0,2 0,1 3,0 0,-1 -3,0 z m 0,2 0,1 2,0 0,-1 -2,0 z m 0,2 0,1 3,0 0,-1 -3,0 z m 0,2 0,1 2,0 0,-1 -2,0 z m 0,2 0,1 3,0 0,-1 -3,0 z m 0,2 0,1 2,0 0,-1 -2,0 z m 0,2 0,1 3,0 0,-1 -3,0 z m 0,2 0,1 2,0 0,-1 -2,0 z m 0,2 0,1 3,0 0,-1 -3,0 z m 0,2 0,1 2,0 0,-1 -2,0 z"
         id="rect6994"
         style="fill:url(#linearGradient6998);fill-opacity:1;fill-rule:evenodd;stroke:none"
         inkscape:connector-curvature="0" />
      <path
         d="M 26.5,1.46875 C 24.534243,1.6746333 17.734452,2.541974 15.96875,3.375 15.489964,3.6248717 15.564849,3.9837677 15.53125,4.53125 l 9.194432,-0.044194 c 0.287372,-0.8822551 1.014066,-1.0220971 2.310279,-1.0220971 1.321033,0 1.432789,0.4124481 1.432789,1.0350413 l 0,36.0312498 4.0625,0 0,-34.9999998 C 32.533235,4.9970483 32.965798,4.5644846 33.5,4.5625 34.762466,4.619225 37.132816,3.7443895 37.426126,3.46875 l -3.926126,0 C 32.965798,3.4667654 32.533235,3.0342017 32.53125,2.5 l 0,-1.03125 -6.03125,0 z"
         id="path5947"
         sodipodi:nodetypes="ccccccccccccccc"
         style="opacity:0.77985074;fill:none;stroke:url(#linearGradient7153);stroke-width:1px;stroke-linecap:butt;stroke-linejoin:miter;stroke-opacity:1"
         inkscape:connector-curvature="0" />
      <path
         d="m 14.5,7.5 c 0,1.559203 0.09995,2.467147 0.96875,2.96875 L 26,12.5 c 0.373164,0.185835 0.5,0.5 0.5,1 l 0,5 -1,0 c -0.554,0 -1,0.446 -1,1 0,0.554 0.446,1 1,1 l 1,0 2,0 0,-12 -2,0 c -1.016528,0.00135 -1,-0.095678 -1,-1 l -11,0 z m 18,1 0,12 2,0 0,-12 -2,0 z"
         id="rect6990"
         sodipodi:nodetypes="ccccccscccccccccccc"
         style="fill:url(#radialGradient7008);fill-opacity:1;fill-rule:evenodd;stroke:#888a85;stroke-width:1;stroke-linecap:round;stroke-linejoin:miter;stroke-miterlimit:10;stroke-opacity:1;stroke-dasharray:none"
         inkscape:connector-curvature="0" />
      <g
         id="g6926"
         style="opacity:0.36194033"
         transform="translate(17,0)">
        <path
           d="m -1.484375,8.5 c 0,0.5073099 0.071245,0.89605 0.453125,1.09375 l 10.375,1.96875 c 0.031746,0.0089 0.063034,0.01929 0.09375,0.03125 0.3473985,0.173004 0.672341,0.48439 0.84375,0.84375 C 10.452659,12.79686 10.5,13.165442 10.5,13.5 l 0,-4 -1,0 c -1,0 -1.6574952,-0.2320194 -1.9005631,-1 l -9.0838119,0 z"
           id="path6920"
           sodipodi:nodetypes="cccssccccc"
           style="fill:none;stroke:#ffffff;stroke-width:1px;stroke-linecap:butt;stroke-linejoin:miter;stroke-opacity:1"
           inkscape:connector-curvature="0" />
        <path
           d="m 10.5,20 0,-7.5"
           id="path6922"
           sodipodi:nodetypes="cc"
           style="fill:none;stroke:#ffffff;stroke-width:1px;stroke-linecap:butt;stroke-linejoin:miter;stroke-opacity:1"
           inkscape:connector-curvature="0" />
        <path
           d="m 16.5,20 0,-11"
           id="path6924"
           sodipodi:nodetypes="cc"
           style="fill:none;stroke:#ffffff;stroke-width:1px;stroke-linecap:butt;stroke-linejoin:miter;stroke-opacity:1"
           inkscape:connector-curvature="0" />
      </g>
      <path
         d="m 19,8 0,1.03125 C 19,9.5679375 18.567937,10 18.03125,10 l -2.389515,0 C 15.641735,10 15,9.5399631 15,9.03125 L 15,8 19,8 z"
         id="rect6965"
         sodipodi:nodetypes="ccccccc"
         style="fill:url(#linearGradient7151);fill-opacity:1;fill-rule:evenodd;stroke:none"
         inkscape:connector-curvature="0" />
      <rect
         height="4"
         id="rect6986"
         rx="0.4826141"
         ry="0.4826141"
         style="fill:#eeeeec;fill-opacity:1;fill-rule:evenodd;stroke:url(#linearGradient7149);stroke-width:1;stroke-linecap:round;stroke-linejoin:miter;stroke-miterlimit:10;stroke-opacity:1;stroke-dasharray:none"
         width="2"
         x="36.5"
         y="11.5" />
      <rect
         height="1"
         id="rect6992"
         style="opacity:0.21268658;fill:#000000;fill-opacity:1;fill-rule:evenodd;stroke:none"
         width="1"
         x="37"
         y="13" />
      <path
         d="m 27,12 0,1 1,0 0,-1 -1,0 z m 0,2 0,1 1,0 0,-1 -1,0 z m 0,2 0,1 1,0 0,-1 -1,0 z m 0,2 0,1 1,0 0,-1 -1,0 z"
         id="path7041"
         sodipodi:nodetypes="cccccccccccccccccccc"
         style="opacity:0.15671644;fill:url(#linearGradient7147);fill-opacity:1;fill-rule:evenodd;stroke:none"
         inkscape:connector-curvature="0" />
      <path
         d="m 33,12 0,1 1,0 0,-1 -1,0 z m 0,2 0,1 1,0 0,-1 -1,0 z m 0,2 0,1 1,0 0,-1 -1,0 z m 0,2 0,1 1,0 0,-1 -1,0 z"
         id="path7045"
         sodipodi:nodetypes="cccccccccccccccccccc"
         style="opacity:0.1;fill:url(#linearGradient7145);fill-opacity:1;fill-rule:evenodd;stroke:none"
         inkscape:connector-curvature="0" />
      <path
         d="m 25.5,19.5 2,0"
         id="path6965"
         style="opacity:0.53731342;fill:none;stroke:url(#linearGradient7143);stroke-width:1px;stroke-linecap:round;stroke-linejoin:miter;stroke-opacity:1"
         inkscape:connector-curvature="0" />
      <path
         d="m 27.5,9.5 -1.5,0 c -0.5,0 -1.312175,-0.5110485 -1.389515,-1 l -9.09486,0"
         id="path6989"
         sodipodi:nodetypes="cccc"
         style="opacity:0.53358208;fill:none;stroke:#ffffff;stroke-width:1px;stroke-linecap:round;stroke-linejoin:miter;stroke-opacity:1"
         inkscape:connector-curvature="0" />
      <path
         d="m 37.426126,3.46875 -3.926126,0 C 32.965798,3.4667654 32.533235,3.0342017 32.53125,2.5 l 0,-1.03125 -6.03125,0 C 24.534243,1.6746333 17.734452,2.541974 15.96875,3.375"
         id="path7135"
         sodipodi:nodetypes="cccccc"
         style="fill:none;stroke:url(#linearGradient7141);stroke-width:1px;stroke-linecap:round;stroke-linejoin:miter;stroke-opacity:1"
         inkscape:connector-curvature="0" />
      <path
         d="M 19,5 19,3.96875 C 19,3.4320625 18.567937,3 18.03125,3 L 15.610485,3 C 15.610485,3 15,3.4600369 15,3.96875 L 15,5 19,5 z"
         id="path6968"
         sodipodi:nodetypes="ccccccc"
         style="fill:url(#linearGradient7139);fill-opacity:1;fill-rule:evenodd;stroke:none"
         inkscape:connector-curvature="0" />
      <rect
         height="1"
         id="rect7011"
         style="opacity:0.53358208;fill:#ffffff;fill-opacity:1;fill-rule:evenodd;stroke:none"
         width="1"
         x="33"
         y="9" />
    </g>
  </g>
  <g
     id="layer4"
     inkscape:groupmode="layer"
     inkscape:label="hires"
     style="display:inline"
     transform="translate(-295.52082,-50)" />
</svg>
