<?xml version="1.0" encoding="UTF-8" standalone="no"?>
<!-- Created with Inkscape (http://www.inkscape.org/) -->

<svg
   xmlns:dc="http://purl.org/dc/elements/1.1/"
   xmlns:cc="http://creativecommons.org/ns#"
   xmlns:rdf="http://www.w3.org/1999/02/22-rdf-syntax-ns#"
   xmlns:svg="http://www.w3.org/2000/svg"
   xmlns="http://www.w3.org/2000/svg"
   xmlns:xlink="http://www.w3.org/1999/xlink"
   xmlns:sodipodi="http://sodipodi.sourceforge.net/DTD/sodipodi-0.dtd"
   xmlns:inkscape="http://www.inkscape.org/namespaces/inkscape"
   width="48"
   height="48"
   id="svg2"
   version="1.1"
   inkscape:version="0.47 r22583"
   sodipodi:docname="gsoc.svg">
  <defs
     id="defs4">
    <linearGradient
       inkscape:collect="always"
       id="linearGradient3767">
      <stop
         style="stop-color:#ffffff;stop-opacity:1;"
         offset="0"
         id="stop3769" />
      <stop
         style="stop-color:#ffffff;stop-opacity:0;"
         offset="1"
         id="stop3771" />
    </linearGradient>
    <linearGradient
       id="linearGradient3699">
      <stop
         style="stop-color:#fff9ca;stop-opacity:1;"
         offset="0"
         id="stop3701" />
      <stop
         style="stop-color:#edd400;stop-opacity:1;"
         offset="1"
         id="stop3703" />
    </linearGradient>
    <inkscape:perspective
       sodipodi:type="inkscape:persp3d"
       inkscape:vp_x="0 : 526.18109 : 1"
       inkscape:vp_y="0 : 1000 : 0"
       inkscape:vp_z="744.09448 : 526.18109 : 1"
       inkscape:persp3d-origin="372.04724 : 350.78739 : 1"
       id="perspective10" />
    <radialGradient
       inkscape:collect="always"
       xlink:href="#linearGradient3699"
       id="radialGradient3758"
       gradientUnits="userSpaceOnUse"
       gradientTransform="matrix(0.77511962,0,0,0.77511962,4.6220095,1008.9843)"
       cx="22.419754"
       cy="22.419636"
       fx="22.419754"
       fy="22.419636"
       r="11" />
    <radialGradient
       inkscape:collect="always"
       xlink:href="#linearGradient3699"
       id="radialGradient3761"
       gradientUnits="userSpaceOnUse"
       gradientTransform="matrix(0.81818182,0,0,0.81818182,3.5454545,1007.9077)"
       cx="25"
       cy="25"
       fx="25"
       fy="25"
       r="11" />
    <radialGradient
       inkscape:collect="always"
       xlink:href="#linearGradient3699"
       id="radialGradient3765"
       gradientUnits="userSpaceOnUse"
       gradientTransform="matrix(0.81818182,0,0,0.81818182,3.5454545,1007.8949)"
       cx="25"
       cy="25"
       fx="25"
       fy="25"
       r="11" />
    <linearGradient
       inkscape:collect="always"
       xlink:href="#linearGradient3767"
       id="linearGradient3773"
       x1="16"
       y1="1017.3622"
       x2="35"
       y2="1042.3622"
       gradientUnits="userSpaceOnUse" />
  </defs>
  <sodipodi:namedview
     id="base"
     pagecolor="#ffffff"
     bordercolor="#666666"
     borderopacity="1.0"
     inkscape:pageopacity="0.0"
     inkscape:pageshadow="2"
     inkscape:zoom="14.520833"
     inkscape:cx="11.672884"
     inkscape:cy="24"
     inkscape:document-units="px"
     inkscape:current-layer="layer1"
     showgrid="true"
     inkscape:snap-global="false"
     inkscape:window-width="1280"
     inkscape:window-height="949"
     inkscape:window-x="0"
     inkscape:window-y="24"
     inkscape:window-maximized="1">
    <inkscape:grid
       type="xygrid"
       id="grid2816"
       empspacing="5"
       visible="true"
       enabled="true"
       snapvisiblegridlinesonly="true" />
  </sodipodi:namedview>
  <metadata
     id="metadata7">
    <rdf:RDF>
      <cc:Work
         rdf:about="">
        <dc:format>image/svg+xml</dc:format>
        <dc:type
           rdf:resource="http://purl.org/dc/dcmitype/StillImage" />
      </cc:Work>
    </rdf:RDF>
  </metadata>
  <g
     inkscape:label="Layer 1"
     inkscape:groupmode="layer"
     id="layer1"
     transform="translate(0,-1004.3622)">
    <path
       sodipodi:type="inkscape:offset"
       inkscape:radius="0"
       inkscape:original="M 24 1019.375 C 19.029437 1019.375 15 1023.4045 15 1028.375 C 15 1033.3456 19.029437 1037.375 24 1037.375 C 28.970563 1037.375 33 1033.3456 33 1028.375 C 33 1023.4045 28.970563 1019.375 24 1019.375 z "
       xlink:href="#path3756"
       style="fill:url(#radialGradient3761);fill-opacity:1;stroke:none"
       id="path3763"
       inkscape:href="#path3756"
       d="m 23.5,1019.375 c -4.970563,0 -9,4.0295 -9,9 0,4.9706 4.029437,9 9,9 4.970563,0 9,-4.0294 9,-9 0,-4.9705 -4.029437,-9 -9,-9 z" />
    <path
       style="fill:url(#radialGradient3765);fill-opacity:1;stroke:none"
       d="m 24,1019.3622 c -4.970563,0 -9,4.0295 -9,9 0,4.9706 4.029437,9 9,9 4.970563,0 9,-4.0294 9,-9 0,-4.9705 -4.029437,-9 -9,-9 z"
       id="path3756" />
    <path
       style="fill:url(#radialGradient3758);fill-opacity:1;stroke:#c4a000;stroke-width:0.94736843999999998;stroke-opacity:1"
       d="m 32.526316,1028.3622 c 0,4.709 -3.817362,8.5263 -8.526316,8.5263 -4.708954,0 -8.526316,-3.8173 -8.526316,-8.5263 0,-4.7089 3.817362,-8.5263 8.526316,-8.5263 4.708954,0 8.526316,3.8174 8.526316,8.5263 z"
       id="path2818" />
    <path
       style="fill:#edd400;fill-opacity:1;stroke:#c4a000"
       d="M 24 2 L 21.03125 12.90625 C 21.982889 12.651259 22.967918 12.5 24 12.5 C 25.032082 12.5 26.017111 12.651259 26.96875 12.90625 L 24 2 z M 8.4375 8.4375 L 14.03125 18.28125 C 15.04475 16.52241 16.52241 15.04477 18.28125 14.03125 L 8.4375 8.4375 z M 39.5625 8.4375 L 29.71875 14.03125 C 31.47759 15.04477 32.95525 16.52241 33.96875 18.28125 L 39.5625 8.4375 z M 12.90625 21.03125 L 2 24 L 12.90625 26.96875 C 12.651266 26.017116 12.5 25.03207 12.5 24 C 12.5 22.967946 12.651266 21.982877 12.90625 21.03125 z M 35.09375 21.03125 C 35.348734 21.982877 35.5 22.967946 35.5 24 C 35.5 25.03207 35.348734 26.017116 35.09375 26.96875 L 46 24 L 35.09375 21.03125 z M 14.03125 29.71875 L 8.4375 39.5625 L 18.28125 33.96875 C 16.52241 32.955242 15.04475 31.47759 14.03125 29.71875 z M 33.96875 29.71875 C 32.95525 31.47759 31.47759 32.955242 29.71875 33.96875 L 39.5625 39.5625 L 33.96875 29.71875 z M 21.03125 35.09375 L 24 46 L 26.96875 35.09375 C 26.017111 35.348737 25.032082 35.5 24 35.5 C 22.967918 35.5 21.982889 35.348737 21.03125 35.09375 z "
       transform="translate(0,1004.3622)"
       id="path3634" />
    <path
       sodipodi:type="inkscape:offset"
       inkscape:radius="-0.9656623"
       inkscape:original="M 24 1019.8438 C 19.291046 1019.8438 15.46875 1023.6661 15.46875 1028.375 C 15.46875 1033.084 19.291046 1036.875 24 1036.875 C 28.708954 1036.875 32.53125 1033.084 32.53125 1028.375 C 32.53125 1023.6661 28.708954 1019.8438 24 1019.8438 z "
       xlink:href="#path2818"
       style="fill:none;stroke:url(#linearGradient3773);stroke-opacity:1"
       id="path3723"
       inkscape:href="#path2818"
       d="m 24,1020.8125 c -4.186396,0 -7.5625,3.3762 -7.5625,7.5625 0,4.1864 3.371825,7.5312 7.5625,7.5312 4.190675,0 7.5625,-3.3448 7.5625,-7.5312 0,-4.1863 -3.376104,-7.5625 -7.5625,-7.5625 z" />
    <path
       style="fill:none;stroke:#ffffff;stroke-width:1px;stroke-linecap:round;stroke-linejoin:round;stroke-opacity:1;opacity:0.7"
       d="m 24,5 -1.756098,6.776184"
       id="path3787"
       transform="translate(0,1004.3622)" />
    <path
       id="path3789"
       d="m 22.312769,1040.6276 1.756098,6.7762"
       style="opacity:0.7;fill:none;stroke:#ffffff;stroke-width:1px;stroke-linecap:round;stroke-linejoin:round;stroke-opacity:1" />
    <path
       id="path3791"
       d="m 42.900287,1028.4346 -6.776184,-1.7561"
       style="opacity:0.7;fill:none;stroke:#ffffff;stroke-width:1px;stroke-linecap:round;stroke-linejoin:round;stroke-opacity:1" />
    <path
       style="opacity:0.7;fill:none;stroke:#ffffff;stroke-width:1px;stroke-linecap:round;stroke-linejoin:round;stroke-opacity:1"
       d="m 4.9275464,1028.3657 6.7761836,-1.7561"
       id="path3793" />
    <path
       id="path3795"
       d="m 10.603898,1041.9361 3.549736,-6.0333"
       style="opacity:0.7;fill:none;stroke:#ffffff;stroke-width:1px;stroke-linecap:round;stroke-linejoin:round;stroke-opacity:1" />
    <path
       style="opacity:0.7;fill:none;stroke:#ffffff;stroke-width:1px;stroke-linecap:round;stroke-linejoin:round;stroke-opacity:1"
       d="m 37.223935,1041.8672 -3.549736,-6.0333"
       id="path3797" />
    <path
       id="path3799"
       d="m 37.501585,1015.1072 -6.0333,3.5497"
       style="opacity:0.7;fill:none;stroke:#ffffff;stroke-width:1px;stroke-linecap:round;stroke-linejoin:round;stroke-opacity:1" />
    <path
       style="opacity:0.7;fill:none;stroke:#ffffff;stroke-width:1px;stroke-linecap:round;stroke-linejoin:round;stroke-opacity:1"
       d="m 10.188515,1014.9006 6.0333,3.5497"
       id="path3801" />
  </g>
</svg>
