<?xml version="1.0" encoding="UTF-8" standalone="no"?>
<!-- Created with Inkscape (http://www.inkscape.org/) -->

<svg
   xmlns:dc="http://purl.org/dc/elements/1.1/"
   xmlns:cc="http://creativecommons.org/ns#"
   xmlns:rdf="http://www.w3.org/1999/02/22-rdf-syntax-ns#"
   xmlns:svg="http://www.w3.org/2000/svg"
   xmlns="http://www.w3.org/2000/svg"
   xmlns:xlink="http://www.w3.org/1999/xlink"
   xmlns:sodipodi="http://sodipodi.sourceforge.net/DTD/sodipodi-0.dtd"
   xmlns:inkscape="http://www.inkscape.org/namespaces/inkscape"
   width="48"
   height="48"
   id="svg2"
   version="1.1"
   inkscape:version="0.47 r22583"
   sodipodi:docname="topic_gl.svg"
   inkscape:export-filename="/home/roccivic/Desktop/GL/geeklog.new.graphics/logo/geeklog-logo-1.png"
   inkscape:export-xdpi="90"
   inkscape:export-ydpi="90">
  <title
     id="title5316">Geeklog logo high-res</title>
  <sodipodi:namedview
     id="base"
     pagecolor="#ffffff"
     bordercolor="#666666"
     borderopacity="1.0"
     inkscape:pageopacity="0.0"
     inkscape:pageshadow="2"
     inkscape:zoom="14.520833"
     inkscape:cx="29.246539"
     inkscape:cy="12.981349"
     inkscape:document-units="px"
     inkscape:current-layer="layer1"
     showgrid="true"
     inkscape:window-width="1280"
     inkscape:window-height="949"
     inkscape:window-x="0"
     inkscape:window-y="24"
     inkscape:window-maximized="1"
     showguides="true"
     inkscape:guide-bbox="true"
     inkscape:snap-global="false">
    <inkscape:grid
       type="xygrid"
       id="grid2836"
       empspacing="5"
       visible="true"
       enabled="true"
       snapvisiblegridlinesonly="true" />
  </sodipodi:namedview>
  <defs
     id="defs4">
    <linearGradient
       inkscape:collect="always"
       id="linearGradient3641">
      <stop
         style="stop-color:#000000;stop-opacity:1;"
         offset="0"
         id="stop3643" />
      <stop
         style="stop-color:#000000;stop-opacity:0;"
         offset="1"
         id="stop3645" />
    </linearGradient>
    <inkscape:path-effect
       is_visible="true"
       id="path-effect4271"
       effect="spiro" />
    <inkscape:path-effect
       is_visible="true"
       id="path-effect3721"
       effect="spiro" />
    <inkscape:path-effect
       is_visible="true"
       id="path-effect3717"
       effect="spiro" />
    <inkscape:perspective
       id="perspective10"
       inkscape:persp3d-origin="372.04724 : 350.78739 : 1"
       inkscape:vp_z="744.09448 : 526.18109 : 1"
       inkscape:vp_y="0 : 1000 : 0"
       inkscape:vp_x="0 : 526.18109 : 1"
       sodipodi:type="inkscape:persp3d" />
    <inkscape:perspective
       sodipodi:type="inkscape:persp3d"
       inkscape:vp_x="0 : 0.5 : 1"
       inkscape:vp_y="0 : 1000 : 0"
       inkscape:vp_z="1 : 0.5 : 1"
       inkscape:persp3d-origin="0.5 : 0.33333333 : 1"
       id="perspective2845" />
    <inkscape:perspective
       sodipodi:type="inkscape:persp3d"
       inkscape:vp_x="0 : 0.5 : 1"
       inkscape:vp_y="0 : 1000 : 0"
       inkscape:vp_z="1 : 0.5 : 1"
       inkscape:persp3d-origin="0.5 : 0.33333333 : 1"
       id="perspective3701" />
    <inkscape:perspective
       id="perspective2857"
       inkscape:persp3d-origin="0.5 : 0.33333333 : 1"
       inkscape:vp_z="1 : 0.5 : 1"
       inkscape:vp_y="0 : 1000 : 0"
       inkscape:vp_x="0 : 0.5 : 1"
       sodipodi:type="inkscape:persp3d" />
    <radialGradient
       inkscape:collect="always"
       xlink:href="#linearGradient3641"
       id="radialGradient3647"
       cx="31.609756"
       cy="40.700142"
       fx="31.609756"
       fy="40.700142"
       r="19.902439"
       gradientTransform="matrix(1,0,0,0.15916956,0,34.221918)"
       gradientUnits="userSpaceOnUse" />
    <radialGradient
       inkscape:collect="always"
       xlink:href="#linearGradient3641"
       id="radialGradient3689"
       gradientUnits="userSpaceOnUse"
       gradientTransform="matrix(1,0,0,0.15916956,0,34.221918)"
       cx="31.609756"
       cy="40.700142"
       fx="31.609756"
       fy="40.700142"
       r="19.902439" />
  </defs>
  <metadata
     id="metadata7">
    <rdf:RDF>
      <cc:Work
         rdf:about="">
        <dc:format>image/svg+xml</dc:format>
        <dc:type
           rdf:resource="http://purl.org/dc/dcmitype/StillImage" />
        <dc:title>Geeklog logo high-res</dc:title>
        <dc:date>13-10-2010</dc:date>
        <dc:creator>
          <cc:Agent>
            <dc:title>Simon Lord, Rouslan Placella</dc:title>
          </cc:Agent>
        </dc:creator>
        <dc:description />
      </cc:Work>
    </rdf:RDF>
  </metadata>
  <g
     transform="translate(-183.0119,-829.68888)"
     id="layer1"
     inkscape:groupmode="layer"
     inkscape:label="Layer 1">
    <path
       sodipodi:type="arc"
       style="opacity:0.25;fill:url(#radialGradient3689);fill-opacity:1;stroke:none"
       id="path2836"
       sodipodi:cx="31.609756"
       sodipodi:cy="40.700142"
       sodipodi:rx="19.902439"
       sodipodi:ry="3.1678624"
       d="m 51.512196,40.700142 a 19.902439,3.1678624 0 1 1 -39.804879,0 19.902439,3.1678624 0 1 1 39.804879,0 z"
       transform="matrix(0.98333374,-0.19280435,0.20217502,1.3313007,173.31302,824.60642)" />
    <g
       id="g2835"
       transform="matrix(0.1136365,0,0,0.1136365,183.60143,756.09494)">
      <path
         sodipodi:nodetypes="ccccc"
         transform="translate(3.6227722,657.42541)"
         id="path2835"
         d="M 173.19149,354.74468 C 128.40829,308.7928 70.713093,234.38492 7.4893617,164.70213 37.389623,126.85776 151.11223,42.444127 214.38298,14.914894 L 273.3617,92.617021 173.19149,354.74468 z"
         style="fill:none;stroke:#000000;stroke-width:15;stroke-linecap:round;stroke-linejoin:round;stroke-miterlimit:4;stroke-opacity:1;stroke-dasharray:none" />
      <path
         sodipodi:nodetypes="ccccc"
         transform="translate(3.6227722,657.42541)"
         id="path3627"
         d="M 184.89361,353.80851 C 143.63246,341.96857 76.32387,225.04254 14.510638,163.76596 77.565993,107.55401 133.91863,62.822216 214.85107,15.382978 L 322.97872,151.12766 184.89361,353.80851 z"
         style="fill:#ffffff;fill-opacity:1;stroke:none" />
      <path
         sodipodi:nodetypes="cc"
         transform="translate(0,659.36218)"
         id="path5294"
         d="m 386.50848,166.16231 c 3.43009,11.57017 -0.82262,24.49263 -16.01489,31.07366"
         style="fill:none;stroke:#000000;stroke-width:20;stroke-linecap:butt;stroke-linejoin:round;stroke-miterlimit:4;stroke-opacity:1;stroke-dasharray:none" />
      <path
         sodipodi:nodetypes="ccccc"
         id="path5174"
         d="M 169.01841,1044.9254 C 137.85181,938.36798 94.418294,850.67797 52.733743,761.65052 126.1837,714.52733 217.09875,687.93404 308.28957,665.64807 c 37.3382,104.79141 69.67546,210.25889 92.62209,315.0503 -76.00892,13.62952 -149.04024,32.25043 -231.89325,64.22703 z"
         style="fill:none;stroke:#000000;stroke-width:15;stroke-linecap:round;stroke-linejoin:round;stroke-miterlimit:4;stroke-opacity:1;stroke-dasharray:none" />
      <path
         sodipodi:nodetypes="ccccc"
         id="path5178"
         d="m 61.5227,762.36761 c 89.91049,-51.09397 175.43323,-73.51462 245.45574,-92.78613 35.56247,104.58011 61.89531,206.05173 88.68164,307.4975 -77.21544,14.44449 -151.91732,35.71252 -225.52856,60.96962 C 155.09224,999.15461 106.05155,851.29348 61.5227,762.36761 z"
         style="fill:#eeeeec;fill-opacity:0.99607843;stroke:none" />
      <path
         sodipodi:nodetypes="ccccc"
         id="path5184"
         d="m 100.39181,786.08485 73.62066,216.55945 C 234.64468,979.77605 298.86674,960.49762 367.14719,945.27758 349.26987,868.76867 326.83226,794.08387 302.6096,720.11309 226.09177,736.46298 150.67666,753.4955 100.39181,786.08485 z"
         style="fill:#75507b;fill-opacity:1;stroke:none" />
      <g
         id="g5239">
        <path
           style="fill:none;stroke:#ffffff;stroke-width:40;stroke-linecap:round;stroke-linejoin:round;stroke-miterlimit:4;stroke-opacity:1;stroke-dasharray:none"
           d="m 275.83846,127.20072 c -6.44292,-16.83056 -113.17642,-20.49931 -112.85526,73.90071 0.16033,47.12754 40.43466,86.08697 78.22724,85.77008 90.01469,-0.75475 78.14976,-95.76642 67.61389,-102.30403"
           id="path5186"
           transform="translate(0,659.36218)"
           sodipodi:nodetypes="csss" />
        <path
           sodipodi:nodetypes="csss"
           transform="translate(0,659.36218)"
           id="path5188"
           d="m 275.83846,127.20072 c -3.73863,-6.01338 -104.7255,-24.55575 -104.40434,69.84427 0.16033,47.12754 34.38175,88.70322 72.14258,87.12223 90.69076,-3.79708 65.98043,-89.00569 65.24763,-99.59974"
           style="fill:none;stroke:#ffffff;stroke-width:40;stroke-linecap:round;stroke-linejoin:round;stroke-miterlimit:4;stroke-opacity:1;stroke-dasharray:none" />
        <path
           style="fill:none;stroke:#eeeeec;stroke-width:19;stroke-linecap:round;stroke-linejoin:miter;stroke-miterlimit:4;stroke-opacity:1;stroke-dasharray:none"
           d="M 253.52761,202.34724 315.72638,182.7411"
           id="path5237"
           transform="translate(0,659.36218)" />
      </g>
      <path
         transform="translate(0,659.36218)"
         style="fill:none;stroke:#000000;stroke-width:20;stroke-linecap:round;stroke-linejoin:round;stroke-miterlimit:4;stroke-opacity:1;stroke-dasharray:none"
         d="m 313.29586,201.66648 -48.09415,15.88688 c -4.55076,1.35647 -16.43072,0.77676 -21.15399,-11.71238 -3.96576,-13.3059 5.61374,-20.15804 10.75626,-21.99059 l 101.82598,-32.98588 c 9.78175,-2.84993 25.99203,1.73524 29.87852,15.2978"
         id="path5292"
         sodipodi:nodetypes="cccccc" />
      <path
         style="fill:none;stroke:#babdb6;stroke-width:7;stroke-linecap:round;stroke-linejoin:round;stroke-miterlimit:4;stroke-opacity:1;stroke-dasharray:none"
         d="m 386.50848,166.16231 c 3.43009,11.57017 -0.82262,24.49263 -16.01489,31.07366"
         id="path5286"
         transform="translate(0,659.36218)"
         sodipodi:nodetypes="cc" />
      <path
         sodipodi:nodetypes="cccccc"
         transform="translate(0,659.36218)"
         id="path5180"
         d="m 313.29586,201.66648 -48.09415,15.88688 c -4.55076,1.35647 -16.43072,0.77676 -21.15399,-11.71238 -3.96576,-13.3059 5.61374,-20.15804 10.75626,-21.99059 l 101.82598,-32.98588 c 9.78175,-2.84993 25.99203,1.73524 29.87852,15.2978"
         style="fill:none;stroke:#babdb6;stroke-width:7;stroke-linecap:round;stroke-linejoin:round;stroke-miterlimit:4;stroke-opacity:1;stroke-dasharray:none" />
      <path
         sodipodi:nodetypes="cc"
         transform="translate(3.6227722,657.42541)"
         id="path3647"
         d="m 374.70014,225.09107 c -3.91738,-14.94171 -8.12645,-29.88341 -12.51929,-44.82511"
         style="fill:#a40000;stroke:#000000;stroke-width:12;stroke-linecap:butt;stroke-linejoin:miter;stroke-miterlimit:4;stroke-opacity:1;stroke-dasharray:none" />
    </g>
  </g>
</svg>
